G04 #@! TF.FileFunction,Legend,Bot*
%FSLAX46Y46*%
G04 Gerber Fmt 4.6, Leading zero omitted, Abs format (unit mm)*
G04 Created by KiCad (PCBNEW 4.0.7-e0-6372~58~ubuntu16.04.1) date Mon Jul 31 15:37:26 2017*
%MOMM*%
%LPD*%
G01*
G04 APERTURE LIST*
%ADD10C,0.100000*%
%ADD11C,0.010000*%
G04 APERTURE END LIST*
D10*
D11*
G36*
X86076834Y-90656167D02*
X85487695Y-90656167D01*
X85333834Y-90655679D01*
X85193955Y-90654301D01*
X85073603Y-90652163D01*
X84978322Y-90649395D01*
X84913656Y-90646126D01*
X84885149Y-90642487D01*
X84884445Y-90642056D01*
X84877346Y-90615193D01*
X84872278Y-90558300D01*
X84870334Y-90483666D01*
X84870334Y-90338667D01*
X86076834Y-90338667D01*
X86076834Y-90656167D01*
X86076834Y-90656167D01*
G37*
X86076834Y-90656167D02*
X85487695Y-90656167D01*
X85333834Y-90655679D01*
X85193955Y-90654301D01*
X85073603Y-90652163D01*
X84978322Y-90649395D01*
X84913656Y-90646126D01*
X84885149Y-90642487D01*
X84884445Y-90642056D01*
X84877346Y-90615193D01*
X84872278Y-90558300D01*
X84870334Y-90483666D01*
X84870334Y-90338667D01*
X86076834Y-90338667D01*
X86076834Y-90656167D01*
G36*
X85484167Y-90041171D02*
X84880917Y-90052917D01*
X84868399Y-90338667D01*
X84574000Y-90338667D01*
X84574000Y-89746000D01*
X85484167Y-89746000D01*
X85484167Y-90041171D01*
X85484167Y-90041171D01*
G37*
X85484167Y-90041171D02*
X84880917Y-90052917D01*
X84868399Y-90338667D01*
X84574000Y-90338667D01*
X84574000Y-89746000D01*
X85484167Y-89746000D01*
X85484167Y-90041171D01*
G36*
X86373167Y-90338667D02*
X86076834Y-90338667D01*
X86076834Y-89746000D01*
X86373167Y-89746000D01*
X86373167Y-90338667D01*
X86373167Y-90338667D01*
G37*
X86373167Y-90338667D02*
X86076834Y-90338667D01*
X86076834Y-89746000D01*
X86373167Y-89746000D01*
X86373167Y-90338667D01*
G36*
X88870834Y-90041674D02*
X88272875Y-90047296D01*
X87674917Y-90052917D01*
X87662399Y-90338667D01*
X88870834Y-90338667D01*
X88870834Y-90656167D01*
X87071667Y-90656167D01*
X87071667Y-90338667D01*
X87368000Y-90338667D01*
X87368000Y-90042334D01*
X87664334Y-90042334D01*
X87664334Y-89746000D01*
X88870834Y-89746000D01*
X88870834Y-90041674D01*
X88870834Y-90041674D01*
G37*
X88870834Y-90041674D02*
X88272875Y-90047296D01*
X87674917Y-90052917D01*
X87662399Y-90338667D01*
X88870834Y-90338667D01*
X88870834Y-90656167D01*
X87071667Y-90656167D01*
X87071667Y-90338667D01*
X87368000Y-90338667D01*
X87368000Y-90042334D01*
X87664334Y-90042334D01*
X87664334Y-89746000D01*
X88870834Y-89746000D01*
X88870834Y-90041674D01*
G36*
X91051000Y-90042334D02*
X91348496Y-90042334D01*
X91336750Y-90645584D01*
X90442459Y-90651105D01*
X89548167Y-90656626D01*
X89548167Y-90338667D01*
X90140834Y-90338667D01*
X90140834Y-90042334D01*
X90437167Y-90042334D01*
X90437167Y-90338667D01*
X91029834Y-90338667D01*
X91029834Y-90042334D01*
X90437167Y-90042334D01*
X90437167Y-89746000D01*
X91051000Y-89746000D01*
X91051000Y-90042334D01*
X91051000Y-90042334D01*
G37*
X91051000Y-90042334D02*
X91348496Y-90042334D01*
X91336750Y-90645584D01*
X90442459Y-90651105D01*
X89548167Y-90656626D01*
X89548167Y-90338667D01*
X90140834Y-90338667D01*
X90140834Y-90042334D01*
X90437167Y-90042334D01*
X90437167Y-90338667D01*
X91029834Y-90338667D01*
X91029834Y-90042334D01*
X90437167Y-90042334D01*
X90437167Y-89746000D01*
X91051000Y-89746000D01*
X91051000Y-90042334D01*
G36*
X90140834Y-90042334D02*
X89548167Y-90042334D01*
X89548167Y-89746000D01*
X90140834Y-89746000D01*
X90140834Y-90042334D01*
X90140834Y-90042334D01*
G37*
X90140834Y-90042334D02*
X89548167Y-90042334D01*
X89548167Y-89746000D01*
X90140834Y-89746000D01*
X90140834Y-90042334D01*
G36*
X93929667Y-90211667D02*
X93633334Y-90211667D01*
X93633334Y-90423334D01*
X93929667Y-90423334D01*
X93929667Y-90656167D01*
X93044195Y-90656167D01*
X92854562Y-90655840D01*
X92678169Y-90654906D01*
X92519489Y-90653436D01*
X92382997Y-90651499D01*
X92273169Y-90649166D01*
X92194479Y-90646507D01*
X92151402Y-90643592D01*
X92144611Y-90642056D01*
X92136335Y-90614204D01*
X92131258Y-90559397D01*
X92130500Y-90525639D01*
X92130500Y-90423334D01*
X93040667Y-90423334D01*
X93040667Y-90211667D01*
X92130500Y-90211667D01*
X92130500Y-89978834D01*
X93929667Y-89978834D01*
X93929667Y-90211667D01*
X93929667Y-90211667D01*
G37*
X93929667Y-90211667D02*
X93633334Y-90211667D01*
X93633334Y-90423334D01*
X93929667Y-90423334D01*
X93929667Y-90656167D01*
X93044195Y-90656167D01*
X92854562Y-90655840D01*
X92678169Y-90654906D01*
X92519489Y-90653436D01*
X92382997Y-90651499D01*
X92273169Y-90649166D01*
X92194479Y-90646507D01*
X92151402Y-90643592D01*
X92144611Y-90642056D01*
X92136335Y-90614204D01*
X92131258Y-90559397D01*
X92130500Y-90525639D01*
X92130500Y-90423334D01*
X93040667Y-90423334D01*
X93040667Y-90211667D01*
X92130500Y-90211667D01*
X92130500Y-89978834D01*
X93929667Y-89978834D01*
X93929667Y-90211667D01*
G36*
X95734125Y-89983895D02*
X96628417Y-89989417D01*
X96628417Y-90201084D01*
X96474959Y-90207302D01*
X96321500Y-90213521D01*
X96321500Y-90423334D01*
X96641212Y-90423334D01*
X96634815Y-90534459D01*
X96628417Y-90645584D01*
X95734125Y-90651105D01*
X94839834Y-90656626D01*
X94839834Y-90423334D01*
X95728834Y-90423334D01*
X95728834Y-90211667D01*
X94839834Y-90211667D01*
X94839834Y-89978374D01*
X95734125Y-89983895D01*
X95734125Y-89983895D01*
G37*
X95734125Y-89983895D02*
X96628417Y-89989417D01*
X96628417Y-90201084D01*
X96474959Y-90207302D01*
X96321500Y-90213521D01*
X96321500Y-90423334D01*
X96641212Y-90423334D01*
X96634815Y-90534459D01*
X96628417Y-90645584D01*
X95734125Y-90651105D01*
X94839834Y-90656626D01*
X94839834Y-90423334D01*
X95728834Y-90423334D01*
X95728834Y-90211667D01*
X94839834Y-90211667D01*
X94839834Y-89978374D01*
X95734125Y-89983895D01*
G36*
X97824334Y-89746000D02*
X98417000Y-89746000D01*
X98417000Y-90040479D01*
X98570459Y-90046698D01*
X98723917Y-90052917D01*
X98730176Y-90195792D01*
X98736434Y-90338667D01*
X99030834Y-90338667D01*
X99030834Y-89746000D01*
X99327167Y-89746000D01*
X99327167Y-90338667D01*
X99032688Y-90338667D01*
X99026469Y-90492125D01*
X99020250Y-90645584D01*
X98723917Y-90645584D01*
X98717698Y-90492125D01*
X98711479Y-90338667D01*
X98417000Y-90338667D01*
X98417000Y-90042334D01*
X97824334Y-90042334D01*
X97824334Y-89746000D01*
X97824334Y-89746000D01*
G37*
X97824334Y-89746000D02*
X98417000Y-89746000D01*
X98417000Y-90040479D01*
X98570459Y-90046698D01*
X98723917Y-90052917D01*
X98730176Y-90195792D01*
X98736434Y-90338667D01*
X99030834Y-90338667D01*
X99030834Y-89746000D01*
X99327167Y-89746000D01*
X99327167Y-90338667D01*
X99032688Y-90338667D01*
X99026469Y-90492125D01*
X99020250Y-90645584D01*
X98723917Y-90645584D01*
X98717698Y-90492125D01*
X98711479Y-90338667D01*
X98417000Y-90338667D01*
X98417000Y-90042334D01*
X97824334Y-90042334D01*
X97824334Y-89746000D01*
G36*
X97824334Y-90656167D02*
X97528000Y-90656167D01*
X97528000Y-90042334D01*
X97824334Y-90042334D01*
X97824334Y-90656167D01*
X97824334Y-90656167D01*
G37*
X97824334Y-90656167D02*
X97528000Y-90656167D01*
X97528000Y-90042334D01*
X97824334Y-90042334D01*
X97824334Y-90656167D01*
G36*
X93929667Y-89322667D02*
X93929667Y-89555500D01*
X93633334Y-89555500D01*
X93633334Y-89767167D01*
X92426834Y-89767167D01*
X92426834Y-89555500D01*
X92130500Y-89555500D01*
X92130500Y-89322667D01*
X92426834Y-89322667D01*
X92448000Y-89322667D01*
X92448000Y-89555500D01*
X93633334Y-89555500D01*
X93633334Y-89322667D01*
X92448000Y-89322667D01*
X92426834Y-89322667D01*
X92426834Y-89111000D01*
X93633334Y-89111000D01*
X93633334Y-89322667D01*
X93929667Y-89322667D01*
X93929667Y-89322667D01*
G37*
X93929667Y-89322667D02*
X93929667Y-89555500D01*
X93633334Y-89555500D01*
X93633334Y-89767167D01*
X92426834Y-89767167D01*
X92426834Y-89555500D01*
X92130500Y-89555500D01*
X92130500Y-89322667D01*
X92426834Y-89322667D01*
X92448000Y-89322667D01*
X92448000Y-89555500D01*
X93633334Y-89555500D01*
X93633334Y-89322667D01*
X92448000Y-89322667D01*
X92426834Y-89322667D01*
X92426834Y-89111000D01*
X93633334Y-89111000D01*
X93633334Y-89322667D01*
X93929667Y-89322667D01*
G36*
X95136167Y-89322667D02*
X96321500Y-89322667D01*
X96321500Y-89111000D01*
X96639000Y-89111000D01*
X96639000Y-89767167D01*
X96321500Y-89767167D01*
X96321500Y-89555500D01*
X95136167Y-89555500D01*
X95136167Y-89767167D01*
X94839834Y-89767167D01*
X94839834Y-89111000D01*
X95136167Y-89111000D01*
X95136167Y-89322667D01*
X95136167Y-89322667D01*
G37*
X95136167Y-89322667D02*
X96321500Y-89322667D01*
X96321500Y-89111000D01*
X96639000Y-89111000D01*
X96639000Y-89767167D01*
X96321500Y-89767167D01*
X96321500Y-89555500D01*
X95136167Y-89555500D01*
X95136167Y-89767167D01*
X94839834Y-89767167D01*
X94839834Y-89111000D01*
X95136167Y-89111000D01*
X95136167Y-89322667D01*
G36*
X86373167Y-89449667D02*
X84574000Y-89449667D01*
X84574000Y-89153334D01*
X86076834Y-89153334D01*
X86076834Y-88857000D01*
X86373167Y-88857000D01*
X86373167Y-89449667D01*
X86373167Y-89449667D01*
G37*
X86373167Y-89449667D02*
X84574000Y-89449667D01*
X84574000Y-89153334D01*
X86076834Y-89153334D01*
X86076834Y-88857000D01*
X86373167Y-88857000D01*
X86373167Y-89449667D01*
G36*
X86076834Y-88857000D02*
X84572146Y-88857000D01*
X84584584Y-88550084D01*
X85330709Y-88544521D01*
X86076834Y-88538959D01*
X86076834Y-88857000D01*
X86076834Y-88857000D01*
G37*
X86076834Y-88857000D02*
X84572146Y-88857000D01*
X84584584Y-88550084D01*
X85330709Y-88544521D01*
X86076834Y-88538959D01*
X86076834Y-88857000D01*
G36*
X88273456Y-88851709D02*
X88279329Y-89153334D01*
X87981834Y-89153334D01*
X87981834Y-89449667D01*
X87368000Y-89449667D01*
X87368000Y-89153334D01*
X87959505Y-89153334D01*
X87965377Y-88851709D01*
X87971250Y-88550084D01*
X88267584Y-88550084D01*
X88273456Y-88851709D01*
X88273456Y-88851709D01*
G37*
X88273456Y-88851709D02*
X88279329Y-89153334D01*
X87981834Y-89153334D01*
X87981834Y-89449667D01*
X87368000Y-89449667D01*
X87368000Y-89153334D01*
X87959505Y-89153334D01*
X87965377Y-88851709D01*
X87971250Y-88550084D01*
X88267584Y-88550084D01*
X88273456Y-88851709D01*
G36*
X87368000Y-89153334D02*
X87071667Y-89153334D01*
X87071667Y-88539500D01*
X87368000Y-88539500D01*
X87368000Y-89153334D01*
X87368000Y-89153334D01*
G37*
X87368000Y-89153334D02*
X87071667Y-89153334D01*
X87071667Y-88539500D01*
X87368000Y-88539500D01*
X87368000Y-89153334D01*
G36*
X90733500Y-89153334D02*
X90437167Y-89153334D01*
X90437167Y-89449667D01*
X89844500Y-89449667D01*
X89844500Y-89153334D01*
X90140834Y-89153334D01*
X90140834Y-88539500D01*
X90733500Y-88539500D01*
X90733500Y-89153334D01*
X90733500Y-89153334D01*
G37*
X90733500Y-89153334D02*
X90437167Y-89153334D01*
X90437167Y-89449667D01*
X89844500Y-89449667D01*
X89844500Y-89153334D01*
X90140834Y-89153334D01*
X90140834Y-88539500D01*
X90733500Y-88539500D01*
X90733500Y-89153334D01*
G36*
X89844500Y-89153334D02*
X89548167Y-89153334D01*
X89548167Y-88539500D01*
X89844500Y-88539500D01*
X89844500Y-89153334D01*
X89844500Y-89153334D01*
G37*
X89844500Y-89153334D02*
X89548167Y-89153334D01*
X89548167Y-88539500D01*
X89844500Y-88539500D01*
X89844500Y-89153334D01*
G36*
X99174295Y-88543838D02*
X99316584Y-88550084D01*
X99322456Y-88851709D01*
X99328329Y-89153334D01*
X99030834Y-89153334D01*
X99030834Y-89449667D01*
X97824334Y-89449667D01*
X97824334Y-89153993D01*
X98422292Y-89148371D01*
X99020250Y-89142750D01*
X99026129Y-88840171D01*
X99032007Y-88537593D01*
X99174295Y-88543838D01*
X99174295Y-88543838D01*
G37*
X99174295Y-88543838D02*
X99316584Y-88550084D01*
X99322456Y-88851709D01*
X99328329Y-89153334D01*
X99030834Y-89153334D01*
X99030834Y-89449667D01*
X97824334Y-89449667D01*
X97824334Y-89153993D01*
X98422292Y-89148371D01*
X99020250Y-89142750D01*
X99026129Y-88840171D01*
X99032007Y-88537593D01*
X99174295Y-88543838D01*
G36*
X97824334Y-89153334D02*
X97528000Y-89153334D01*
X97528000Y-88539500D01*
X97824334Y-88539500D01*
X97824334Y-89153334D01*
X97824334Y-89153334D01*
G37*
X97824334Y-89153334D02*
X97528000Y-89153334D01*
X97528000Y-88539500D01*
X97824334Y-88539500D01*
X97824334Y-89153334D01*
G36*
X93633334Y-88899334D02*
X93337000Y-88899334D01*
X93337000Y-88666500D01*
X93633334Y-88666500D01*
X93633334Y-88899334D01*
X93633334Y-88899334D01*
G37*
X93633334Y-88899334D02*
X93337000Y-88899334D01*
X93337000Y-88666500D01*
X93633334Y-88666500D01*
X93633334Y-88899334D01*
G36*
X93040667Y-88454834D02*
X92449481Y-88454834D01*
X92437417Y-88888750D01*
X92298937Y-88894909D01*
X92225789Y-88895933D01*
X92170264Y-88892579D01*
X92145478Y-88886089D01*
X92139096Y-88859742D01*
X92134067Y-88800989D01*
X92131059Y-88719753D01*
X92130500Y-88662972D01*
X92130500Y-88454834D01*
X92424621Y-88454834D01*
X92437417Y-88232584D01*
X93040667Y-88220838D01*
X93040667Y-88454834D01*
X93040667Y-88454834D01*
G37*
X93040667Y-88454834D02*
X92449481Y-88454834D01*
X92437417Y-88888750D01*
X92298937Y-88894909D01*
X92225789Y-88895933D01*
X92170264Y-88892579D01*
X92145478Y-88886089D01*
X92139096Y-88859742D01*
X92134067Y-88800989D01*
X92131059Y-88719753D01*
X92130500Y-88662972D01*
X92130500Y-88454834D01*
X92424621Y-88454834D01*
X92437417Y-88232584D01*
X93040667Y-88220838D01*
X93040667Y-88454834D01*
G36*
X93929667Y-88666500D02*
X93633334Y-88666500D01*
X93633334Y-88222000D01*
X93929667Y-88222000D01*
X93929667Y-88666500D01*
X93929667Y-88666500D01*
G37*
X93929667Y-88666500D02*
X93633334Y-88666500D01*
X93633334Y-88222000D01*
X93929667Y-88222000D01*
X93929667Y-88666500D01*
G36*
X93337000Y-88666500D02*
X93040667Y-88666500D01*
X93040667Y-88454834D01*
X93337000Y-88454834D01*
X93337000Y-88666500D01*
X93337000Y-88666500D01*
G37*
X93337000Y-88666500D02*
X93040667Y-88666500D01*
X93040667Y-88454834D01*
X93337000Y-88454834D01*
X93337000Y-88666500D01*
G36*
X95728834Y-88454834D02*
X95137648Y-88454834D01*
X95125584Y-88888750D01*
X94839834Y-88901268D01*
X94839834Y-88454834D01*
X95136167Y-88454834D01*
X95136167Y-88222000D01*
X95728834Y-88222000D01*
X95728834Y-88454834D01*
X95728834Y-88454834D01*
G37*
X95728834Y-88454834D02*
X95137648Y-88454834D01*
X95125584Y-88888750D01*
X94839834Y-88901268D01*
X94839834Y-88454834D01*
X95136167Y-88454834D01*
X95136167Y-88222000D01*
X95728834Y-88222000D01*
X95728834Y-88454834D01*
G36*
X96025167Y-88666500D02*
X96321500Y-88666500D01*
X96321500Y-88901268D01*
X96035750Y-88888750D01*
X96029352Y-88777625D01*
X96022955Y-88666500D01*
X95728834Y-88666500D01*
X95728834Y-88454834D01*
X96025167Y-88454834D01*
X96025167Y-88666500D01*
X96025167Y-88666500D01*
G37*
X96025167Y-88666500D02*
X96321500Y-88666500D01*
X96321500Y-88901268D01*
X96035750Y-88888750D01*
X96029352Y-88777625D01*
X96022955Y-88666500D01*
X95728834Y-88666500D01*
X95728834Y-88454834D01*
X96025167Y-88454834D01*
X96025167Y-88666500D01*
G36*
X96474959Y-88226365D02*
X96628417Y-88232584D01*
X96640481Y-88666500D01*
X96321500Y-88666500D01*
X96321500Y-88220146D01*
X96474959Y-88226365D01*
X96474959Y-88226365D01*
G37*
X96474959Y-88226365D02*
X96628417Y-88232584D01*
X96640481Y-88666500D01*
X96321500Y-88666500D01*
X96321500Y-88220146D01*
X96474959Y-88226365D01*
G36*
X86076834Y-87649841D02*
X85478875Y-87655462D01*
X84880917Y-87661084D01*
X84868399Y-87946834D01*
X86076834Y-87946834D01*
X86076834Y-87650500D01*
X86373167Y-87650500D01*
X86373167Y-88243167D01*
X84574000Y-88243167D01*
X84574000Y-87650500D01*
X84870334Y-87650500D01*
X84870334Y-87354167D01*
X86076834Y-87354167D01*
X86076834Y-87649841D01*
X86076834Y-87649841D01*
G37*
X86076834Y-87649841D02*
X85478875Y-87655462D01*
X84880917Y-87661084D01*
X84868399Y-87946834D01*
X86076834Y-87946834D01*
X86076834Y-87650500D01*
X86373167Y-87650500D01*
X86373167Y-88243167D01*
X84574000Y-88243167D01*
X84574000Y-87650500D01*
X84870334Y-87650500D01*
X84870334Y-87354167D01*
X86076834Y-87354167D01*
X86076834Y-87649841D01*
G36*
X88278167Y-87946834D02*
X87981834Y-87946834D01*
X87981834Y-88243167D01*
X87368000Y-88243167D01*
X87368000Y-87946834D01*
X87960667Y-87946834D01*
X87960667Y-87354167D01*
X88278167Y-87354167D01*
X88278167Y-87946834D01*
X88278167Y-87946834D01*
G37*
X88278167Y-87946834D02*
X87981834Y-87946834D01*
X87981834Y-88243167D01*
X87368000Y-88243167D01*
X87368000Y-87946834D01*
X87960667Y-87946834D01*
X87960667Y-87354167D01*
X88278167Y-87354167D01*
X88278167Y-87946834D01*
G36*
X87368000Y-87946834D02*
X87071667Y-87946834D01*
X87071667Y-87354167D01*
X87368000Y-87354167D01*
X87368000Y-87946834D01*
X87368000Y-87946834D01*
G37*
X87368000Y-87946834D02*
X87071667Y-87946834D01*
X87071667Y-87354167D01*
X87368000Y-87354167D01*
X87368000Y-87946834D01*
G36*
X90140834Y-87650500D02*
X90437167Y-87650500D01*
X90437167Y-87354167D01*
X90733500Y-87354167D01*
X90733500Y-87946834D01*
X90437167Y-87946834D01*
X90437167Y-88243167D01*
X90140834Y-88243167D01*
X90140834Y-87946834D01*
X89844500Y-87946834D01*
X89844500Y-88243167D01*
X89548167Y-88243167D01*
X89548167Y-87650500D01*
X89844500Y-87650500D01*
X89844500Y-87354167D01*
X90140834Y-87354167D01*
X90140834Y-87650500D01*
X90140834Y-87650500D01*
G37*
X90140834Y-87650500D02*
X90437167Y-87650500D01*
X90437167Y-87354167D01*
X90733500Y-87354167D01*
X90733500Y-87946834D01*
X90437167Y-87946834D01*
X90437167Y-88243167D01*
X90140834Y-88243167D01*
X90140834Y-87946834D01*
X89844500Y-87946834D01*
X89844500Y-88243167D01*
X89548167Y-88243167D01*
X89548167Y-87650500D01*
X89844500Y-87650500D01*
X89844500Y-87354167D01*
X90140834Y-87354167D01*
X90140834Y-87650500D01*
G36*
X99327167Y-87650500D02*
X98734500Y-87650500D01*
X98734500Y-87946834D01*
X99327167Y-87946834D01*
X99327167Y-88243167D01*
X97528000Y-88243167D01*
X97528000Y-87946834D01*
X98417000Y-87946834D01*
X98417000Y-87650500D01*
X98713334Y-87650500D01*
X98713334Y-87354167D01*
X99327167Y-87354167D01*
X99327167Y-87650500D01*
X99327167Y-87650500D01*
G37*
X99327167Y-87650500D02*
X98734500Y-87650500D01*
X98734500Y-87946834D01*
X99327167Y-87946834D01*
X99327167Y-88243167D01*
X97528000Y-88243167D01*
X97528000Y-87946834D01*
X98417000Y-87946834D01*
X98417000Y-87650500D01*
X98713334Y-87650500D01*
X98713334Y-87354167D01*
X99327167Y-87354167D01*
X99327167Y-87650500D01*
G36*
X98417000Y-87650500D02*
X97528000Y-87650500D01*
X97528000Y-87354167D01*
X98417000Y-87354167D01*
X98417000Y-87650500D01*
X98417000Y-87650500D01*
G37*
X98417000Y-87650500D02*
X97528000Y-87650500D01*
X97528000Y-87354167D01*
X98417000Y-87354167D01*
X98417000Y-87650500D01*
G36*
X92448000Y-87565834D02*
X93633334Y-87565834D01*
X93633334Y-87354167D01*
X93929667Y-87354167D01*
X93929667Y-88010334D01*
X93633334Y-88010334D01*
X93633334Y-87798667D01*
X92448000Y-87798667D01*
X92448000Y-88010334D01*
X92130500Y-88010334D01*
X92130500Y-87354167D01*
X92448000Y-87354167D01*
X92448000Y-87565834D01*
X92448000Y-87565834D01*
G37*
X92448000Y-87565834D02*
X93633334Y-87565834D01*
X93633334Y-87354167D01*
X93929667Y-87354167D01*
X93929667Y-88010334D01*
X93633334Y-88010334D01*
X93633334Y-87798667D01*
X92448000Y-87798667D01*
X92448000Y-88010334D01*
X92130500Y-88010334D01*
X92130500Y-87354167D01*
X92448000Y-87354167D01*
X92448000Y-87565834D01*
G36*
X96321500Y-87563979D02*
X96474959Y-87570198D01*
X96628417Y-87576417D01*
X96628417Y-87788084D01*
X96474959Y-87794302D01*
X96321500Y-87800521D01*
X96321500Y-88010334D01*
X95136167Y-88010334D01*
X95136167Y-87798667D01*
X94839834Y-87798667D01*
X94839834Y-87565834D01*
X95136167Y-87565834D01*
X95136167Y-87798667D01*
X96321500Y-87798667D01*
X96321500Y-87565834D01*
X95136167Y-87565834D01*
X95136167Y-87354167D01*
X96321500Y-87354167D01*
X96321500Y-87563979D01*
X96321500Y-87563979D01*
G37*
X96321500Y-87563979D02*
X96474959Y-87570198D01*
X96628417Y-87576417D01*
X96628417Y-87788084D01*
X96474959Y-87794302D01*
X96321500Y-87800521D01*
X96321500Y-88010334D01*
X95136167Y-88010334D01*
X95136167Y-87798667D01*
X94839834Y-87798667D01*
X94839834Y-87565834D01*
X95136167Y-87565834D01*
X95136167Y-87798667D01*
X96321500Y-87798667D01*
X96321500Y-87565834D01*
X95136167Y-87565834D01*
X95136167Y-87354167D01*
X96321500Y-87354167D01*
X96321500Y-87563979D01*
G36*
X87706667Y-81575667D02*
X88003000Y-81575667D01*
X88003000Y-81279334D01*
X88299334Y-81279334D01*
X88299334Y-81575667D01*
X88595667Y-81575667D01*
X88595667Y-82189500D01*
X86795338Y-82189500D01*
X86806877Y-81596834D01*
X87092834Y-81596834D01*
X87092834Y-81730889D01*
X87094996Y-81802857D01*
X87100629Y-81856978D01*
X87107515Y-81879626D01*
X87132994Y-81884599D01*
X87192560Y-81887971D01*
X87277990Y-81889501D01*
X87381059Y-81888948D01*
X87409140Y-81888446D01*
X87696084Y-81882584D01*
X87702342Y-81739709D01*
X87708601Y-81596834D01*
X88003000Y-81596834D01*
X88003000Y-81893167D01*
X88299334Y-81893167D01*
X88299334Y-81596834D01*
X88003000Y-81596834D01*
X87708601Y-81596834D01*
X87092834Y-81596834D01*
X86806877Y-81596834D01*
X86807084Y-81586250D01*
X87090942Y-81573776D01*
X87097180Y-81431846D01*
X87103417Y-81289917D01*
X87706667Y-81278171D01*
X87706667Y-81575667D01*
X87706667Y-81575667D01*
G37*
X87706667Y-81575667D02*
X88003000Y-81575667D01*
X88003000Y-81279334D01*
X88299334Y-81279334D01*
X88299334Y-81575667D01*
X88595667Y-81575667D01*
X88595667Y-82189500D01*
X86795338Y-82189500D01*
X86806877Y-81596834D01*
X87092834Y-81596834D01*
X87092834Y-81730889D01*
X87094996Y-81802857D01*
X87100629Y-81856978D01*
X87107515Y-81879626D01*
X87132994Y-81884599D01*
X87192560Y-81887971D01*
X87277990Y-81889501D01*
X87381059Y-81888948D01*
X87409140Y-81888446D01*
X87696084Y-81882584D01*
X87702342Y-81739709D01*
X87708601Y-81596834D01*
X88003000Y-81596834D01*
X88003000Y-81893167D01*
X88299334Y-81893167D01*
X88299334Y-81596834D01*
X88003000Y-81596834D01*
X87708601Y-81596834D01*
X87092834Y-81596834D01*
X86806877Y-81596834D01*
X86807084Y-81586250D01*
X87090942Y-81573776D01*
X87097180Y-81431846D01*
X87103417Y-81289917D01*
X87706667Y-81278171D01*
X87706667Y-81575667D01*
G36*
X97136417Y-81882584D02*
X96994487Y-81888821D01*
X96852558Y-81895058D01*
X96846321Y-82036987D01*
X96840084Y-82178917D01*
X96242125Y-82184538D01*
X95644167Y-82190159D01*
X95644167Y-81893167D01*
X96828338Y-81893167D01*
X96840084Y-81289917D01*
X97136417Y-81289917D01*
X97136417Y-81882584D01*
X97136417Y-81882584D01*
G37*
X97136417Y-81882584D02*
X96994487Y-81888821D01*
X96852558Y-81895058D01*
X96846321Y-82036987D01*
X96840084Y-82178917D01*
X96242125Y-82184538D01*
X95644167Y-82190159D01*
X95644167Y-81893167D01*
X96828338Y-81893167D01*
X96840084Y-81289917D01*
X97136417Y-81289917D01*
X97136417Y-81882584D01*
G36*
X96236834Y-81596834D02*
X95644167Y-81596834D01*
X95644167Y-81893167D01*
X95347834Y-81893167D01*
X95347834Y-81279334D01*
X96236834Y-81279334D01*
X96236834Y-81596834D01*
X96236834Y-81596834D01*
G37*
X96236834Y-81596834D02*
X95644167Y-81596834D01*
X95644167Y-81893167D01*
X95347834Y-81893167D01*
X95347834Y-81279334D01*
X96236834Y-81279334D01*
X96236834Y-81596834D01*
G36*
X88595667Y-80390334D02*
X88595667Y-80686667D01*
X88299334Y-80686667D01*
X88299334Y-80983000D01*
X86796500Y-80983000D01*
X86796500Y-80686667D01*
X87389167Y-80686667D01*
X87389167Y-80390334D01*
X87706667Y-80390334D01*
X87706667Y-80686667D01*
X88299334Y-80686667D01*
X88299334Y-80390334D01*
X87706667Y-80390334D01*
X87389167Y-80390334D01*
X86796500Y-80390334D01*
X86796500Y-80094000D01*
X88299334Y-80094000D01*
X88299334Y-80390334D01*
X88595667Y-80390334D01*
X88595667Y-80390334D01*
G37*
X88595667Y-80390334D02*
X88595667Y-80686667D01*
X88299334Y-80686667D01*
X88299334Y-80983000D01*
X86796500Y-80983000D01*
X86796500Y-80686667D01*
X87389167Y-80686667D01*
X87389167Y-80390334D01*
X87706667Y-80390334D01*
X87706667Y-80686667D01*
X88299334Y-80686667D01*
X88299334Y-80390334D01*
X87706667Y-80390334D01*
X87389167Y-80390334D01*
X86796500Y-80390334D01*
X86796500Y-80094000D01*
X88299334Y-80094000D01*
X88299334Y-80390334D01*
X88595667Y-80390334D01*
G36*
X96850667Y-80390334D02*
X97147000Y-80390334D01*
X97147000Y-80983000D01*
X95347834Y-80983000D01*
X95347834Y-80686667D01*
X96829500Y-80686667D01*
X96829500Y-80390334D01*
X95347834Y-80390334D01*
X95347834Y-80094000D01*
X96850667Y-80094000D01*
X96850667Y-80390334D01*
X96850667Y-80390334D01*
G37*
X96850667Y-80390334D02*
X97147000Y-80390334D01*
X97147000Y-80983000D01*
X95347834Y-80983000D01*
X95347834Y-80686667D01*
X96829500Y-80686667D01*
X96829500Y-80390334D01*
X95347834Y-80390334D01*
X95347834Y-80094000D01*
X96850667Y-80094000D01*
X96850667Y-80390334D01*
G36*
X88595667Y-79797667D02*
X88299334Y-79797667D01*
X88299334Y-79501875D01*
X87553209Y-79496313D01*
X86807084Y-79490750D01*
X86794646Y-79183834D01*
X88299334Y-79183834D01*
X88299334Y-78887500D01*
X88595667Y-78887500D01*
X88595667Y-79797667D01*
X88595667Y-79797667D01*
G37*
X88595667Y-79797667D02*
X88299334Y-79797667D01*
X88299334Y-79501875D01*
X87553209Y-79496313D01*
X86807084Y-79490750D01*
X86794646Y-79183834D01*
X88299334Y-79183834D01*
X88299334Y-78887500D01*
X88595667Y-78887500D01*
X88595667Y-79797667D01*
G36*
X96242125Y-78892462D02*
X96840084Y-78898084D01*
X96846342Y-79040959D01*
X96852601Y-79183834D01*
X97148162Y-79183834D01*
X97142290Y-79485459D01*
X97136417Y-79787084D01*
X96242125Y-79792605D01*
X95347834Y-79798126D01*
X95347834Y-79183834D01*
X95644167Y-79183834D01*
X95644167Y-79480167D01*
X96829500Y-79480167D01*
X96829500Y-79183834D01*
X95644167Y-79183834D01*
X95644167Y-78886841D01*
X96242125Y-78892462D01*
X96242125Y-78892462D01*
G37*
X96242125Y-78892462D02*
X96840084Y-78898084D01*
X96846342Y-79040959D01*
X96852601Y-79183834D01*
X97148162Y-79183834D01*
X97142290Y-79485459D01*
X97136417Y-79787084D01*
X96242125Y-79792605D01*
X95347834Y-79798126D01*
X95347834Y-79183834D01*
X95644167Y-79183834D01*
X95644167Y-79480167D01*
X96829500Y-79480167D01*
X96829500Y-79183834D01*
X95644167Y-79183834D01*
X95644167Y-78886841D01*
X96242125Y-78892462D01*
G36*
X54856000Y-77363500D02*
X54265268Y-77363500D01*
X54252750Y-77077750D01*
X54098964Y-77071525D01*
X53945177Y-77065299D01*
X53950797Y-76468275D01*
X53956317Y-75881834D01*
X54263334Y-75881834D01*
X54263334Y-77067167D01*
X54559667Y-77067167D01*
X54559667Y-75881834D01*
X54263334Y-75881834D01*
X53956317Y-75881834D01*
X53956417Y-75871250D01*
X54109875Y-75865031D01*
X54263334Y-75858812D01*
X54263334Y-75564334D01*
X54856000Y-75564334D01*
X54856000Y-77363500D01*
X54856000Y-77363500D01*
G37*
X54856000Y-77363500D02*
X54265268Y-77363500D01*
X54252750Y-77077750D01*
X54098964Y-77071525D01*
X53945177Y-77065299D01*
X53950797Y-76468275D01*
X53956317Y-75881834D01*
X54263334Y-75881834D01*
X54263334Y-77067167D01*
X54559667Y-77067167D01*
X54559667Y-75881834D01*
X54263334Y-75881834D01*
X53956317Y-75881834D01*
X53956417Y-75871250D01*
X54109875Y-75865031D01*
X54263334Y-75858812D01*
X54263334Y-75564334D01*
X54856000Y-75564334D01*
X54856000Y-77363500D01*
G36*
X56051917Y-75574917D02*
X56057438Y-76469209D01*
X56062960Y-77363500D01*
X55745000Y-77363500D01*
X55745000Y-75881834D01*
X55448667Y-75881834D01*
X55448667Y-77363500D01*
X55151792Y-77363500D01*
X55157354Y-76617375D01*
X55162917Y-75871250D01*
X55305792Y-75864991D01*
X55448667Y-75858733D01*
X55448667Y-75563171D01*
X56051917Y-75574917D01*
X56051917Y-75574917D01*
G37*
X56051917Y-75574917D02*
X56057438Y-76469209D01*
X56062960Y-77363500D01*
X55745000Y-77363500D01*
X55745000Y-75881834D01*
X55448667Y-75881834D01*
X55448667Y-77363500D01*
X55151792Y-77363500D01*
X55157354Y-76617375D01*
X55162917Y-75871250D01*
X55305792Y-75864991D01*
X55448667Y-75858733D01*
X55448667Y-75563171D01*
X56051917Y-75574917D01*
G36*
X56655167Y-77067167D02*
X56951500Y-77067167D01*
X56951500Y-77363500D01*
X56358834Y-77363500D01*
X56358834Y-76474500D01*
X56655167Y-76474500D01*
X56655167Y-77067167D01*
X56655167Y-77067167D01*
G37*
X56655167Y-77067167D02*
X56951500Y-77067167D01*
X56951500Y-77363500D01*
X56358834Y-77363500D01*
X56358834Y-76474500D01*
X56655167Y-76474500D01*
X56655167Y-77067167D01*
G36*
X56951500Y-75860667D02*
X57247834Y-75860667D01*
X57247834Y-77067167D01*
X56951500Y-77067167D01*
X56951500Y-75881834D01*
X56358834Y-75881834D01*
X56358834Y-75564334D01*
X56951500Y-75564334D01*
X56951500Y-75860667D01*
X56951500Y-75860667D01*
G37*
X56951500Y-75860667D02*
X57247834Y-75860667D01*
X57247834Y-77067167D01*
X56951500Y-77067167D01*
X56951500Y-75881834D01*
X56358834Y-75881834D01*
X56358834Y-75564334D01*
X56951500Y-75564334D01*
X56951500Y-75860667D01*
G36*
X127542334Y-77363500D02*
X126949667Y-77363500D01*
X126949667Y-77067167D01*
X126653334Y-77067167D01*
X126653334Y-75881834D01*
X126949667Y-75881834D01*
X126949667Y-77067167D01*
X127246000Y-77067167D01*
X127246000Y-75881834D01*
X126949667Y-75881834D01*
X126653334Y-75881834D01*
X126653334Y-75860667D01*
X126949667Y-75860667D01*
X126949667Y-75564334D01*
X127542334Y-75564334D01*
X127542334Y-77363500D01*
X127542334Y-77363500D01*
G37*
X127542334Y-77363500D02*
X126949667Y-77363500D01*
X126949667Y-77067167D01*
X126653334Y-77067167D01*
X126653334Y-75881834D01*
X126949667Y-75881834D01*
X126949667Y-77067167D01*
X127246000Y-77067167D01*
X127246000Y-75881834D01*
X126949667Y-75881834D01*
X126653334Y-75881834D01*
X126653334Y-75860667D01*
X126949667Y-75860667D01*
X126949667Y-75564334D01*
X127542334Y-75564334D01*
X127542334Y-77363500D01*
G36*
X128743772Y-76469209D02*
X128749293Y-77363500D01*
X128431334Y-77363500D01*
X128431334Y-75881834D01*
X128135000Y-75881834D01*
X128135000Y-77363500D01*
X127838125Y-77363500D01*
X127843688Y-76617375D01*
X127849250Y-75871250D01*
X127991180Y-75865013D01*
X128133109Y-75858776D01*
X128139346Y-75716846D01*
X128145584Y-75574917D01*
X128738250Y-75574917D01*
X128743772Y-76469209D01*
X128743772Y-76469209D01*
G37*
X128743772Y-76469209D02*
X128749293Y-77363500D01*
X128431334Y-77363500D01*
X128431334Y-75881834D01*
X128135000Y-75881834D01*
X128135000Y-77363500D01*
X127838125Y-77363500D01*
X127843688Y-76617375D01*
X127849250Y-75871250D01*
X127991180Y-75865013D01*
X128133109Y-75858776D01*
X128139346Y-75716846D01*
X128145584Y-75574917D01*
X128738250Y-75574917D01*
X128743772Y-76469209D01*
G36*
X129341500Y-77067167D02*
X129637834Y-77067167D01*
X129637834Y-77363500D01*
X129045167Y-77363500D01*
X129045167Y-76474500D01*
X129341500Y-76474500D01*
X129341500Y-77067167D01*
X129341500Y-77067167D01*
G37*
X129341500Y-77067167D02*
X129637834Y-77067167D01*
X129637834Y-77363500D01*
X129045167Y-77363500D01*
X129045167Y-76474500D01*
X129341500Y-76474500D01*
X129341500Y-77067167D01*
G36*
X129637834Y-75860667D02*
X129934167Y-75860667D01*
X129934167Y-77067167D01*
X129637834Y-77067167D01*
X129637834Y-75881834D01*
X129045167Y-75881834D01*
X129045167Y-75564334D01*
X129637834Y-75564334D01*
X129637834Y-75860667D01*
X129637834Y-75860667D01*
G37*
X129637834Y-75860667D02*
X129934167Y-75860667D01*
X129934167Y-77067167D01*
X129637834Y-77067167D01*
X129637834Y-75881834D01*
X129045167Y-75881834D01*
X129045167Y-75564334D01*
X129637834Y-75564334D01*
X129637834Y-75860667D01*
G36*
X48908167Y-76622667D02*
X47151334Y-76622667D01*
X47151334Y-76262834D01*
X48908167Y-76262834D01*
X48908167Y-76622667D01*
X48908167Y-76622667D01*
G37*
X48908167Y-76622667D02*
X47151334Y-76622667D01*
X47151334Y-76262834D01*
X48908167Y-76262834D01*
X48908167Y-76622667D01*
G36*
X136707500Y-76622667D02*
X134929500Y-76622667D01*
X134929500Y-76262834D01*
X136707500Y-76262834D01*
X136707500Y-76622667D01*
X136707500Y-76622667D01*
G37*
X136707500Y-76622667D02*
X134929500Y-76622667D01*
X134929500Y-76262834D01*
X136707500Y-76262834D01*
X136707500Y-76622667D01*
G36*
X87050500Y-75056334D02*
X86288500Y-75056334D01*
X86288500Y-74865834D01*
X87050500Y-74865834D01*
X87050500Y-75056334D01*
X87050500Y-75056334D01*
G37*
X87050500Y-75056334D02*
X86288500Y-75056334D01*
X86288500Y-74865834D01*
X87050500Y-74865834D01*
X87050500Y-75056334D01*
G36*
X87241000Y-74865834D02*
X87050500Y-74865834D01*
X87050500Y-74484834D01*
X87241000Y-74484834D01*
X87241000Y-74865834D01*
X87241000Y-74865834D01*
G37*
X87241000Y-74865834D02*
X87050500Y-74865834D01*
X87050500Y-74484834D01*
X87241000Y-74484834D01*
X87241000Y-74865834D01*
G36*
X86669500Y-74675334D02*
X86288500Y-74675334D01*
X86288500Y-74865834D01*
X86098000Y-74865834D01*
X86098000Y-74484834D01*
X86669500Y-74484834D01*
X86669500Y-74675334D01*
X86669500Y-74675334D01*
G37*
X86669500Y-74675334D02*
X86288500Y-74675334D01*
X86288500Y-74865834D01*
X86098000Y-74865834D01*
X86098000Y-74484834D01*
X86669500Y-74484834D01*
X86669500Y-74675334D01*
G36*
X90860500Y-75056334D02*
X89717500Y-75056334D01*
X89717500Y-74865834D01*
X90670000Y-74865834D01*
X90670000Y-74675334D01*
X90860500Y-74675334D01*
X90860500Y-75056334D01*
X90860500Y-75056334D01*
G37*
X90860500Y-75056334D02*
X89717500Y-75056334D01*
X89717500Y-74865834D01*
X90670000Y-74865834D01*
X90670000Y-74675334D01*
X90860500Y-74675334D01*
X90860500Y-75056334D01*
G36*
X90670000Y-74675334D02*
X89717500Y-74675334D01*
X89717500Y-74484834D01*
X90670000Y-74484834D01*
X90670000Y-74675334D01*
X90670000Y-74675334D01*
G37*
X90670000Y-74675334D02*
X89717500Y-74675334D01*
X89717500Y-74484834D01*
X90670000Y-74484834D01*
X90670000Y-74675334D01*
G36*
X93696834Y-74865834D02*
X94480000Y-74865834D01*
X94480000Y-75056334D01*
X93315834Y-75056334D01*
X93315834Y-74865834D01*
X93506334Y-74865834D01*
X93506334Y-74675334D01*
X93696834Y-74675334D01*
X93696834Y-74865834D01*
X93696834Y-74865834D01*
G37*
X93696834Y-74865834D02*
X94480000Y-74865834D01*
X94480000Y-75056334D01*
X93315834Y-75056334D01*
X93315834Y-74865834D01*
X93506334Y-74865834D01*
X93506334Y-74675334D01*
X93696834Y-74675334D01*
X93696834Y-74865834D01*
G36*
X94480000Y-74675334D02*
X93696834Y-74675334D01*
X93696834Y-74484834D01*
X94480000Y-74484834D01*
X94480000Y-74675334D01*
X94480000Y-74675334D01*
G37*
X94480000Y-74675334D02*
X93696834Y-74675334D01*
X93696834Y-74484834D01*
X94480000Y-74484834D01*
X94480000Y-74675334D01*
G36*
X48125000Y-73807500D02*
X48844667Y-73807500D01*
X48844667Y-74188500D01*
X48125000Y-74188500D01*
X48125000Y-74908167D01*
X47765167Y-74908167D01*
X47765167Y-74189549D01*
X47421209Y-74183733D01*
X47077250Y-74177917D01*
X47077250Y-73818084D01*
X47421209Y-73812268D01*
X47765167Y-73806452D01*
X47765167Y-73087834D01*
X48125000Y-73087834D01*
X48125000Y-73807500D01*
X48125000Y-73807500D01*
G37*
X48125000Y-73807500D02*
X48844667Y-73807500D01*
X48844667Y-74188500D01*
X48125000Y-74188500D01*
X48125000Y-74908167D01*
X47765167Y-74908167D01*
X47765167Y-74189549D01*
X47421209Y-74183733D01*
X47077250Y-74177917D01*
X47077250Y-73818084D01*
X47421209Y-73812268D01*
X47765167Y-73806452D01*
X47765167Y-73087834D01*
X48125000Y-73087834D01*
X48125000Y-73807500D01*
G36*
X136087237Y-73278334D02*
X136089485Y-73392864D01*
X136091386Y-73520213D01*
X136092528Y-73632820D01*
X136092529Y-73632875D01*
X136093667Y-73807500D01*
X136771000Y-73807500D01*
X136771000Y-74188500D01*
X136094690Y-74188500D01*
X136083084Y-74897584D01*
X135912773Y-74903661D01*
X135831500Y-74904764D01*
X135767199Y-74902287D01*
X135731030Y-74896760D01*
X135727564Y-74894842D01*
X135722560Y-74869653D01*
X135718272Y-74809553D01*
X135715006Y-74721961D01*
X135713069Y-74614297D01*
X135712667Y-74534222D01*
X135712667Y-74188500D01*
X135014167Y-74188500D01*
X135014167Y-73807500D01*
X135712667Y-73807500D01*
X135713805Y-73632875D01*
X135714947Y-73520284D01*
X135716848Y-73392936D01*
X135719095Y-73278390D01*
X135719097Y-73278334D01*
X135723250Y-73098417D01*
X136083084Y-73098417D01*
X136087237Y-73278334D01*
X136087237Y-73278334D01*
G37*
X136087237Y-73278334D02*
X136089485Y-73392864D01*
X136091386Y-73520213D01*
X136092528Y-73632820D01*
X136092529Y-73632875D01*
X136093667Y-73807500D01*
X136771000Y-73807500D01*
X136771000Y-74188500D01*
X136094690Y-74188500D01*
X136083084Y-74897584D01*
X135912773Y-74903661D01*
X135831500Y-74904764D01*
X135767199Y-74902287D01*
X135731030Y-74896760D01*
X135727564Y-74894842D01*
X135722560Y-74869653D01*
X135718272Y-74809553D01*
X135715006Y-74721961D01*
X135713069Y-74614297D01*
X135712667Y-74534222D01*
X135712667Y-74188500D01*
X135014167Y-74188500D01*
X135014167Y-73807500D01*
X135712667Y-73807500D01*
X135713805Y-73632875D01*
X135714947Y-73520284D01*
X135716848Y-73392936D01*
X135719095Y-73278390D01*
X135719097Y-73278334D01*
X135723250Y-73098417D01*
X136083084Y-73098417D01*
X136087237Y-73278334D01*
G36*
X54856000Y-74569500D02*
X54559667Y-74569500D01*
X54559667Y-74865834D01*
X54262669Y-74865834D01*
X54138591Y-74864915D01*
X54051241Y-74861813D01*
X53995049Y-74856005D01*
X53964442Y-74846969D01*
X53954609Y-74837005D01*
X53949637Y-74801183D01*
X53948308Y-74738646D01*
X53949982Y-74683547D01*
X53956417Y-74558917D01*
X54559667Y-74547171D01*
X54559667Y-73955667D01*
X54856000Y-73955667D01*
X54856000Y-74569500D01*
X54856000Y-74569500D01*
G37*
X54856000Y-74569500D02*
X54559667Y-74569500D01*
X54559667Y-74865834D01*
X54262669Y-74865834D01*
X54138591Y-74864915D01*
X54051241Y-74861813D01*
X53995049Y-74856005D01*
X53964442Y-74846969D01*
X53954609Y-74837005D01*
X53949637Y-74801183D01*
X53948308Y-74738646D01*
X53949982Y-74683547D01*
X53956417Y-74558917D01*
X54559667Y-74547171D01*
X54559667Y-73955667D01*
X54856000Y-73955667D01*
X54856000Y-74569500D01*
G36*
X54559667Y-73955667D02*
X53945834Y-73955667D01*
X53945834Y-73659334D01*
X54559667Y-73659334D01*
X54559667Y-73955667D01*
X54559667Y-73955667D01*
G37*
X54559667Y-73955667D02*
X53945834Y-73955667D01*
X53945834Y-73659334D01*
X54559667Y-73659334D01*
X54559667Y-73955667D01*
G36*
X55745000Y-73953812D02*
X55898459Y-73960031D01*
X56051917Y-73966250D01*
X56051917Y-74558917D01*
X55898459Y-74565136D01*
X55745000Y-74571355D01*
X55745000Y-74865834D01*
X55150479Y-74865834D01*
X55156698Y-74712375D01*
X55162917Y-74558917D01*
X55453959Y-74553028D01*
X55745000Y-74547139D01*
X55745000Y-73955667D01*
X55152334Y-73955667D01*
X55152334Y-73659334D01*
X55745000Y-73659334D01*
X55745000Y-73953812D01*
X55745000Y-73953812D01*
G37*
X55745000Y-73953812D02*
X55898459Y-73960031D01*
X56051917Y-73966250D01*
X56051917Y-74558917D01*
X55898459Y-74565136D01*
X55745000Y-74571355D01*
X55745000Y-74865834D01*
X55150479Y-74865834D01*
X55156698Y-74712375D01*
X55162917Y-74558917D01*
X55453959Y-74553028D01*
X55745000Y-74547139D01*
X55745000Y-73955667D01*
X55152334Y-73955667D01*
X55152334Y-73659334D01*
X55745000Y-73659334D01*
X55745000Y-73953812D01*
G36*
X56655167Y-74252000D02*
X56951500Y-74252000D01*
X56951500Y-73066667D01*
X57247834Y-73066667D01*
X57247834Y-74865834D01*
X56951500Y-74865834D01*
X56951500Y-74569500D01*
X56655167Y-74569500D01*
X56655167Y-74273167D01*
X56358834Y-74273167D01*
X56358834Y-73066667D01*
X56655167Y-73066667D01*
X56655167Y-74252000D01*
X56655167Y-74252000D01*
G37*
X56655167Y-74252000D02*
X56951500Y-74252000D01*
X56951500Y-73066667D01*
X57247834Y-73066667D01*
X57247834Y-74865834D01*
X56951500Y-74865834D01*
X56951500Y-74569500D01*
X56655167Y-74569500D01*
X56655167Y-74273167D01*
X56358834Y-74273167D01*
X56358834Y-73066667D01*
X56655167Y-73066667D01*
X56655167Y-74252000D01*
G36*
X127500000Y-74569500D02*
X127203667Y-74569500D01*
X127203667Y-74865834D01*
X126611000Y-74865834D01*
X126611000Y-74548334D01*
X127203667Y-74548334D01*
X127203667Y-73955667D01*
X127500000Y-73955667D01*
X127500000Y-74569500D01*
X127500000Y-74569500D01*
G37*
X127500000Y-74569500D02*
X127203667Y-74569500D01*
X127203667Y-74865834D01*
X126611000Y-74865834D01*
X126611000Y-74548334D01*
X127203667Y-74548334D01*
X127203667Y-73955667D01*
X127500000Y-73955667D01*
X127500000Y-74569500D01*
G36*
X127203667Y-73955667D02*
X126611000Y-73955667D01*
X126611000Y-73659334D01*
X127203667Y-73659334D01*
X127203667Y-73955667D01*
X127203667Y-73955667D01*
G37*
X127203667Y-73955667D02*
X126611000Y-73955667D01*
X126611000Y-73659334D01*
X127203667Y-73659334D01*
X127203667Y-73955667D01*
G36*
X128410167Y-73955667D02*
X128706500Y-73955667D01*
X128706500Y-74569500D01*
X128410167Y-74569500D01*
X128410167Y-74865834D01*
X127794479Y-74865834D01*
X127800698Y-74712375D01*
X127806917Y-74558917D01*
X128109135Y-74553040D01*
X128411354Y-74547164D01*
X128399584Y-73966250D01*
X128097959Y-73960377D01*
X127796334Y-73954505D01*
X127796334Y-73659334D01*
X128410167Y-73659334D01*
X128410167Y-73955667D01*
X128410167Y-73955667D01*
G37*
X128410167Y-73955667D02*
X128706500Y-73955667D01*
X128706500Y-74569500D01*
X128410167Y-74569500D01*
X128410167Y-74865834D01*
X127794479Y-74865834D01*
X127800698Y-74712375D01*
X127806917Y-74558917D01*
X128109135Y-74553040D01*
X128411354Y-74547164D01*
X128399584Y-73966250D01*
X128097959Y-73960377D01*
X127796334Y-73954505D01*
X127796334Y-73659334D01*
X128410167Y-73659334D01*
X128410167Y-73955667D01*
G36*
X129299167Y-74252000D02*
X129595500Y-74252000D01*
X129595500Y-73066667D01*
X129913460Y-73066667D01*
X129907938Y-73960959D01*
X129902417Y-74855250D01*
X129748959Y-74861469D01*
X129595500Y-74867688D01*
X129595500Y-74569500D01*
X129299167Y-74569500D01*
X129299167Y-74273167D01*
X129002834Y-74273167D01*
X129002834Y-73066667D01*
X129299167Y-73066667D01*
X129299167Y-74252000D01*
X129299167Y-74252000D01*
G37*
X129299167Y-74252000D02*
X129595500Y-74252000D01*
X129595500Y-73066667D01*
X129913460Y-73066667D01*
X129907938Y-73960959D01*
X129902417Y-74855250D01*
X129748959Y-74861469D01*
X129595500Y-74867688D01*
X129595500Y-74569500D01*
X129299167Y-74569500D01*
X129299167Y-74273167D01*
X129002834Y-74273167D01*
X129002834Y-73066667D01*
X129299167Y-73066667D01*
X129299167Y-74252000D01*
G36*
X87241000Y-74294334D02*
X86098000Y-74294334D01*
X86098000Y-74103834D01*
X87050500Y-74103834D01*
X87050500Y-73913334D01*
X87241000Y-73913334D01*
X87241000Y-74294334D01*
X87241000Y-74294334D01*
G37*
X87241000Y-74294334D02*
X86098000Y-74294334D01*
X86098000Y-74103834D01*
X87050500Y-74103834D01*
X87050500Y-73913334D01*
X87241000Y-73913334D01*
X87241000Y-74294334D01*
G36*
X87050500Y-73913334D02*
X86098000Y-73913334D01*
X86098000Y-73722834D01*
X87050500Y-73722834D01*
X87050500Y-73913334D01*
X87050500Y-73913334D01*
G37*
X87050500Y-73913334D02*
X86098000Y-73913334D01*
X86098000Y-73722834D01*
X87050500Y-73722834D01*
X87050500Y-73913334D01*
G36*
X89908000Y-74103834D02*
X90289000Y-74103834D01*
X90289000Y-73913334D01*
X90479500Y-73913334D01*
X90479500Y-74103834D01*
X90670000Y-74103834D01*
X90670000Y-73722834D01*
X90860500Y-73722834D01*
X90860500Y-74294334D01*
X89717500Y-74294334D01*
X89717500Y-73722834D01*
X89908000Y-73722834D01*
X89908000Y-74103834D01*
X89908000Y-74103834D01*
G37*
X89908000Y-74103834D02*
X90289000Y-74103834D01*
X90289000Y-73913334D01*
X90479500Y-73913334D01*
X90479500Y-74103834D01*
X90670000Y-74103834D01*
X90670000Y-73722834D01*
X90860500Y-73722834D01*
X90860500Y-74294334D01*
X89717500Y-74294334D01*
X89717500Y-73722834D01*
X89908000Y-73722834D01*
X89908000Y-74103834D01*
G36*
X94094533Y-73908042D02*
X94088417Y-74093250D01*
X93987875Y-74099702D01*
X93887334Y-74106153D01*
X93887334Y-74294334D01*
X93506334Y-74294334D01*
X93506334Y-74103834D01*
X93887334Y-74103834D01*
X93887334Y-73722834D01*
X94100648Y-73722834D01*
X94094533Y-73908042D01*
X94094533Y-73908042D01*
G37*
X94094533Y-73908042D02*
X94088417Y-74093250D01*
X93987875Y-74099702D01*
X93887334Y-74106153D01*
X93887334Y-74294334D01*
X93506334Y-74294334D01*
X93506334Y-74103834D01*
X93887334Y-74103834D01*
X93887334Y-73722834D01*
X94100648Y-73722834D01*
X94094533Y-73908042D01*
G36*
X93506334Y-74103834D02*
X93315834Y-74103834D01*
X93315834Y-73722834D01*
X93506334Y-73722834D01*
X93506334Y-74103834D01*
X93506334Y-74103834D01*
G37*
X93506334Y-74103834D02*
X93315834Y-74103834D01*
X93315834Y-73722834D01*
X93506334Y-73722834D01*
X93506334Y-74103834D01*
G36*
X87054632Y-73040209D02*
X87061084Y-73140750D01*
X87241000Y-73153768D01*
X87241000Y-73532334D01*
X86098000Y-73532334D01*
X86098000Y-73153768D01*
X86131639Y-73151334D01*
X86288500Y-73151334D01*
X86288500Y-73341834D01*
X87050500Y-73341834D01*
X87050500Y-73151334D01*
X86288500Y-73151334D01*
X86131639Y-73151334D01*
X86187959Y-73147259D01*
X86277917Y-73140750D01*
X86284368Y-73040209D01*
X86290820Y-72939667D01*
X87048181Y-72939667D01*
X87054632Y-73040209D01*
X87054632Y-73040209D01*
G37*
X87054632Y-73040209D02*
X87061084Y-73140750D01*
X87241000Y-73153768D01*
X87241000Y-73532334D01*
X86098000Y-73532334D01*
X86098000Y-73153768D01*
X86131639Y-73151334D01*
X86288500Y-73151334D01*
X86288500Y-73341834D01*
X87050500Y-73341834D01*
X87050500Y-73151334D01*
X86288500Y-73151334D01*
X86131639Y-73151334D01*
X86187959Y-73147259D01*
X86277917Y-73140750D01*
X86284368Y-73040209D01*
X86290820Y-72939667D01*
X87048181Y-72939667D01*
X87054632Y-73040209D01*
G36*
X90860500Y-73151334D02*
X90860500Y-73341834D01*
X90670000Y-73341834D01*
X90670000Y-73532334D01*
X89908000Y-73532334D01*
X89908000Y-73341834D01*
X89717500Y-73341834D01*
X89717500Y-73153768D01*
X89751139Y-73151334D01*
X89908000Y-73151334D01*
X89908000Y-73341834D01*
X90670000Y-73341834D01*
X90670000Y-73151334D01*
X89908000Y-73151334D01*
X89751139Y-73151334D01*
X89807459Y-73147259D01*
X89897417Y-73140750D01*
X89903868Y-73040209D01*
X89910320Y-72939667D01*
X90670000Y-72939667D01*
X90670000Y-73151334D01*
X90860500Y-73151334D01*
X90860500Y-73151334D01*
G37*
X90860500Y-73151334D02*
X90860500Y-73341834D01*
X90670000Y-73341834D01*
X90670000Y-73532334D01*
X89908000Y-73532334D01*
X89908000Y-73341834D01*
X89717500Y-73341834D01*
X89717500Y-73153768D01*
X89751139Y-73151334D01*
X89908000Y-73151334D01*
X89908000Y-73341834D01*
X90670000Y-73341834D01*
X90670000Y-73151334D01*
X89908000Y-73151334D01*
X89751139Y-73151334D01*
X89807459Y-73147259D01*
X89897417Y-73140750D01*
X89903868Y-73040209D01*
X89910320Y-72939667D01*
X90670000Y-72939667D01*
X90670000Y-73151334D01*
X90860500Y-73151334D01*
G36*
X93510815Y-73134281D02*
X93516917Y-73331250D01*
X93885723Y-73343458D01*
X93897917Y-72950250D01*
X94088417Y-72950250D01*
X94088417Y-73331250D01*
X93987875Y-73337702D01*
X93887334Y-73344153D01*
X93887334Y-73532334D01*
X93506334Y-73532334D01*
X93506334Y-73341834D01*
X93314245Y-73341834D01*
X93326417Y-72950250D01*
X93415565Y-72943781D01*
X93504714Y-72937312D01*
X93510815Y-73134281D01*
X93510815Y-73134281D01*
G37*
X93510815Y-73134281D02*
X93516917Y-73331250D01*
X93885723Y-73343458D01*
X93897917Y-72950250D01*
X94088417Y-72950250D01*
X94088417Y-73331250D01*
X93987875Y-73337702D01*
X93887334Y-73344153D01*
X93887334Y-73532334D01*
X93506334Y-73532334D01*
X93506334Y-73341834D01*
X93314245Y-73341834D01*
X93326417Y-72950250D01*
X93415565Y-72943781D01*
X93504714Y-72937312D01*
X93510815Y-73134281D01*
G36*
X54559667Y-71138566D02*
X54845417Y-71151084D01*
X54857855Y-71458000D01*
X54559667Y-71458000D01*
X54559667Y-72050667D01*
X54856000Y-72050667D01*
X54856000Y-72347000D01*
X53945834Y-72347000D01*
X53945834Y-72050667D01*
X54263334Y-72050667D01*
X54263334Y-70844167D01*
X54559667Y-70844167D01*
X54559667Y-71138566D01*
X54559667Y-71138566D01*
G37*
X54559667Y-71138566D02*
X54845417Y-71151084D01*
X54857855Y-71458000D01*
X54559667Y-71458000D01*
X54559667Y-72050667D01*
X54856000Y-72050667D01*
X54856000Y-72347000D01*
X53945834Y-72347000D01*
X53945834Y-72050667D01*
X54263334Y-72050667D01*
X54263334Y-70844167D01*
X54559667Y-70844167D01*
X54559667Y-71138566D01*
G36*
X55898459Y-70552198D02*
X56051917Y-70558417D01*
X56057438Y-71452709D01*
X56062960Y-72347000D01*
X55745000Y-72347000D01*
X55745000Y-72050667D01*
X55448667Y-72050667D01*
X55448667Y-71754334D01*
X55745000Y-71754334D01*
X55745000Y-70545979D01*
X55898459Y-70552198D01*
X55898459Y-70552198D01*
G37*
X55898459Y-70552198D02*
X56051917Y-70558417D01*
X56057438Y-71452709D01*
X56062960Y-72347000D01*
X55745000Y-72347000D01*
X55745000Y-72050667D01*
X55448667Y-72050667D01*
X55448667Y-71754334D01*
X55745000Y-71754334D01*
X55745000Y-70545979D01*
X55898459Y-70552198D01*
G36*
X55448667Y-71754334D02*
X55152334Y-71754334D01*
X55152334Y-70547834D01*
X55448667Y-70547834D01*
X55448667Y-71754334D01*
X55448667Y-71754334D01*
G37*
X55448667Y-71754334D02*
X55152334Y-71754334D01*
X55152334Y-70547834D01*
X55448667Y-70547834D01*
X55448667Y-71754334D01*
G36*
X56951500Y-72347000D02*
X56358834Y-72347000D01*
X56358834Y-72050667D01*
X56951500Y-72050667D01*
X56951500Y-72347000D01*
X56951500Y-72347000D01*
G37*
X56951500Y-72347000D02*
X56358834Y-72347000D01*
X56358834Y-72050667D01*
X56951500Y-72050667D01*
X56951500Y-72347000D01*
G36*
X56951500Y-70844167D02*
X57247834Y-70844167D01*
X57247834Y-72050667D01*
X56952159Y-72050667D01*
X56946538Y-71452709D01*
X56940917Y-70854750D01*
X56649875Y-70848861D01*
X56358834Y-70842972D01*
X56358834Y-70547834D01*
X56951500Y-70547834D01*
X56951500Y-70844167D01*
X56951500Y-70844167D01*
G37*
X56951500Y-70844167D02*
X57247834Y-70844167D01*
X57247834Y-72050667D01*
X56952159Y-72050667D01*
X56946538Y-71452709D01*
X56940917Y-70854750D01*
X56649875Y-70848861D01*
X56358834Y-70842972D01*
X56358834Y-70547834D01*
X56951500Y-70547834D01*
X56951500Y-70844167D01*
G36*
X125849000Y-72347000D02*
X125235167Y-72347000D01*
X125235167Y-72050667D01*
X125849000Y-72050667D01*
X125849000Y-72347000D01*
X125849000Y-72347000D01*
G37*
X125849000Y-72347000D02*
X125235167Y-72347000D01*
X125235167Y-72050667D01*
X125849000Y-72050667D01*
X125849000Y-72347000D01*
G36*
X125850855Y-71458000D02*
X126145334Y-71458000D01*
X126145334Y-72050667D01*
X125849000Y-72050667D01*
X125849000Y-71754334D01*
X125234005Y-71754334D01*
X125239877Y-71452709D01*
X125245750Y-71151084D01*
X125838417Y-71151084D01*
X125850855Y-71458000D01*
X125850855Y-71458000D01*
G37*
X125850855Y-71458000D02*
X126145334Y-71458000D01*
X126145334Y-72050667D01*
X125849000Y-72050667D01*
X125849000Y-71754334D01*
X125234005Y-71754334D01*
X125239877Y-71452709D01*
X125245750Y-71151084D01*
X125838417Y-71151084D01*
X125850855Y-71458000D01*
G36*
X126738000Y-71140500D02*
X127330667Y-71140500D01*
X127330667Y-72347000D01*
X127034334Y-72347000D01*
X127034334Y-71458000D01*
X126738000Y-71458000D01*
X126738000Y-71140500D01*
X126738000Y-71140500D01*
G37*
X126738000Y-71140500D02*
X127330667Y-71140500D01*
X127330667Y-72347000D01*
X127034334Y-72347000D01*
X127034334Y-71458000D01*
X126738000Y-71458000D01*
X126738000Y-71140500D01*
G36*
X126738000Y-72347000D02*
X126441667Y-72347000D01*
X126441667Y-71458000D01*
X126738000Y-71458000D01*
X126738000Y-72347000D01*
X126738000Y-72347000D01*
G37*
X126738000Y-72347000D02*
X126441667Y-72347000D01*
X126441667Y-71458000D01*
X126738000Y-71458000D01*
X126738000Y-72347000D01*
G36*
X128230250Y-71151084D02*
X128235871Y-71749042D01*
X128241493Y-72347000D01*
X127944500Y-72347000D01*
X127944500Y-71138566D01*
X128230250Y-71151084D01*
X128230250Y-71151084D01*
G37*
X128230250Y-71151084D02*
X128235871Y-71749042D01*
X128241493Y-72347000D01*
X127944500Y-72347000D01*
X127944500Y-71138566D01*
X128230250Y-71151084D01*
G36*
X129579625Y-70552198D02*
X129733084Y-70558417D01*
X129738605Y-71452709D01*
X129744126Y-72347000D01*
X128833500Y-72347000D01*
X128833500Y-72050667D01*
X129426167Y-72050667D01*
X129426167Y-70545979D01*
X129579625Y-70552198D01*
X129579625Y-70552198D01*
G37*
X129579625Y-70552198D02*
X129733084Y-70558417D01*
X129738605Y-71452709D01*
X129744126Y-72347000D01*
X128833500Y-72347000D01*
X128833500Y-72050667D01*
X129426167Y-72050667D01*
X129426167Y-70545979D01*
X129579625Y-70552198D01*
G36*
X47087834Y-70863553D02*
X47251875Y-70869735D01*
X47415917Y-70875917D01*
X47422065Y-71050542D01*
X47428212Y-71225167D01*
X47786334Y-71225167D01*
X47786334Y-71585000D01*
X48146167Y-71585000D01*
X48146167Y-70505500D01*
X48506000Y-70505500D01*
X48506000Y-70863553D01*
X48834084Y-70875917D01*
X48840231Y-71050542D01*
X48846379Y-71225167D01*
X49183334Y-71225167D01*
X49183334Y-71585000D01*
X49522000Y-71585000D01*
X49522000Y-71944834D01*
X49881834Y-71944834D01*
X49881834Y-72304667D01*
X49500834Y-72304667D01*
X49500834Y-71944834D01*
X49162167Y-71944834D01*
X49162167Y-71585000D01*
X48825212Y-71585000D01*
X48819065Y-71410375D01*
X48812917Y-71235750D01*
X48659459Y-71229531D01*
X48506000Y-71223312D01*
X48506000Y-72299729D01*
X48458375Y-72312492D01*
X48407799Y-72319318D01*
X48331824Y-72322532D01*
X48247224Y-72322195D01*
X48170773Y-72318371D01*
X48119709Y-72311243D01*
X48100824Y-72300179D01*
X48089571Y-72273345D01*
X48084127Y-72222005D01*
X48082668Y-72137423D01*
X48082667Y-72133781D01*
X48082667Y-71966000D01*
X47946815Y-71966000D01*
X47853180Y-71964845D01*
X47793983Y-71956400D01*
X47761328Y-71933196D01*
X47747319Y-71887763D01*
X47744062Y-71812632D01*
X47744000Y-71774126D01*
X47744000Y-71607948D01*
X47579959Y-71601766D01*
X47415917Y-71595584D01*
X47405334Y-71415667D01*
X47394750Y-71235750D01*
X47087834Y-71223312D01*
X47087834Y-72304667D01*
X46728000Y-72304667D01*
X46728000Y-71944834D01*
X46369879Y-71944834D01*
X46363731Y-71770209D01*
X46357584Y-71595584D01*
X46008334Y-71583288D01*
X46008334Y-71225167D01*
X46368167Y-71225167D01*
X46368167Y-71585000D01*
X46728000Y-71585000D01*
X46728000Y-70505500D01*
X47087834Y-70505500D01*
X47087834Y-70863553D01*
X47087834Y-70863553D01*
G37*
X47087834Y-70863553D02*
X47251875Y-70869735D01*
X47415917Y-70875917D01*
X47422065Y-71050542D01*
X47428212Y-71225167D01*
X47786334Y-71225167D01*
X47786334Y-71585000D01*
X48146167Y-71585000D01*
X48146167Y-70505500D01*
X48506000Y-70505500D01*
X48506000Y-70863553D01*
X48834084Y-70875917D01*
X48840231Y-71050542D01*
X48846379Y-71225167D01*
X49183334Y-71225167D01*
X49183334Y-71585000D01*
X49522000Y-71585000D01*
X49522000Y-71944834D01*
X49881834Y-71944834D01*
X49881834Y-72304667D01*
X49500834Y-72304667D01*
X49500834Y-71944834D01*
X49162167Y-71944834D01*
X49162167Y-71585000D01*
X48825212Y-71585000D01*
X48819065Y-71410375D01*
X48812917Y-71235750D01*
X48659459Y-71229531D01*
X48506000Y-71223312D01*
X48506000Y-72299729D01*
X48458375Y-72312492D01*
X48407799Y-72319318D01*
X48331824Y-72322532D01*
X48247224Y-72322195D01*
X48170773Y-72318371D01*
X48119709Y-72311243D01*
X48100824Y-72300179D01*
X48089571Y-72273345D01*
X48084127Y-72222005D01*
X48082668Y-72137423D01*
X48082667Y-72133781D01*
X48082667Y-71966000D01*
X47946815Y-71966000D01*
X47853180Y-71964845D01*
X47793983Y-71956400D01*
X47761328Y-71933196D01*
X47747319Y-71887763D01*
X47744062Y-71812632D01*
X47744000Y-71774126D01*
X47744000Y-71607948D01*
X47579959Y-71601766D01*
X47415917Y-71595584D01*
X47405334Y-71415667D01*
X47394750Y-71235750D01*
X47087834Y-71223312D01*
X47087834Y-72304667D01*
X46728000Y-72304667D01*
X46728000Y-71944834D01*
X46369879Y-71944834D01*
X46363731Y-71770209D01*
X46357584Y-71595584D01*
X46008334Y-71583288D01*
X46008334Y-71225167D01*
X46368167Y-71225167D01*
X46368167Y-71585000D01*
X46728000Y-71585000D01*
X46728000Y-70505500D01*
X47087834Y-70505500D01*
X47087834Y-70863553D01*
G36*
X137130834Y-71585000D02*
X137469500Y-71585000D01*
X137469500Y-71223519D01*
X137654709Y-71229634D01*
X137839917Y-71235750D01*
X137846065Y-71410375D01*
X137852212Y-71585000D01*
X137490667Y-71585000D01*
X137490667Y-71944834D01*
X137130834Y-71944834D01*
X137130834Y-72304667D01*
X136771727Y-72304667D01*
X136766072Y-71770209D01*
X136760417Y-71235750D01*
X136606959Y-71229531D01*
X136453500Y-71223312D01*
X136453500Y-71401892D01*
X136452443Y-71495934D01*
X136444066Y-71555510D01*
X136420560Y-71588487D01*
X136374115Y-71602729D01*
X136296924Y-71606100D01*
X136250686Y-71606167D01*
X136114834Y-71606167D01*
X136114834Y-71773236D01*
X136113774Y-71860431D01*
X136105466Y-71916340D01*
X136082212Y-71947913D01*
X136036318Y-71962103D01*
X135960088Y-71965861D01*
X135901436Y-71966000D01*
X135755000Y-71966000D01*
X135755000Y-72132865D01*
X135754090Y-72216806D01*
X135749704Y-72267790D01*
X135739360Y-72295184D01*
X135720574Y-72308352D01*
X135707375Y-72312492D01*
X135653950Y-72320662D01*
X135580791Y-72324507D01*
X135502287Y-72324198D01*
X135432829Y-72319906D01*
X135386806Y-72311800D01*
X135379671Y-72308619D01*
X135370823Y-72290749D01*
X135363652Y-72247263D01*
X135357958Y-72174769D01*
X135353544Y-72069877D01*
X135350214Y-71929193D01*
X135347921Y-71763902D01*
X135342250Y-71235750D01*
X135035334Y-71223312D01*
X135035334Y-71585000D01*
X134696667Y-71585000D01*
X134696667Y-71944834D01*
X134336834Y-71944834D01*
X134336834Y-72304667D01*
X133977000Y-72304667D01*
X133977000Y-71944834D01*
X134315667Y-71944834D01*
X134315667Y-71585000D01*
X134675500Y-71585000D01*
X134675500Y-71225167D01*
X135014167Y-71225167D01*
X135014167Y-70865334D01*
X135329955Y-70865334D01*
X135336102Y-70690709D01*
X135342250Y-70516084D01*
X135527459Y-70509968D01*
X135712667Y-70503852D01*
X135712667Y-71585000D01*
X136051334Y-71585000D01*
X136051334Y-71225167D01*
X136432334Y-71225167D01*
X136432334Y-70865334D01*
X136748121Y-70865334D01*
X136760417Y-70516084D01*
X136945625Y-70509968D01*
X137130834Y-70503852D01*
X137130834Y-71585000D01*
X137130834Y-71585000D01*
G37*
X137130834Y-71585000D02*
X137469500Y-71585000D01*
X137469500Y-71223519D01*
X137654709Y-71229634D01*
X137839917Y-71235750D01*
X137846065Y-71410375D01*
X137852212Y-71585000D01*
X137490667Y-71585000D01*
X137490667Y-71944834D01*
X137130834Y-71944834D01*
X137130834Y-72304667D01*
X136771727Y-72304667D01*
X136766072Y-71770209D01*
X136760417Y-71235750D01*
X136606959Y-71229531D01*
X136453500Y-71223312D01*
X136453500Y-71401892D01*
X136452443Y-71495934D01*
X136444066Y-71555510D01*
X136420560Y-71588487D01*
X136374115Y-71602729D01*
X136296924Y-71606100D01*
X136250686Y-71606167D01*
X136114834Y-71606167D01*
X136114834Y-71773236D01*
X136113774Y-71860431D01*
X136105466Y-71916340D01*
X136082212Y-71947913D01*
X136036318Y-71962103D01*
X135960088Y-71965861D01*
X135901436Y-71966000D01*
X135755000Y-71966000D01*
X135755000Y-72132865D01*
X135754090Y-72216806D01*
X135749704Y-72267790D01*
X135739360Y-72295184D01*
X135720574Y-72308352D01*
X135707375Y-72312492D01*
X135653950Y-72320662D01*
X135580791Y-72324507D01*
X135502287Y-72324198D01*
X135432829Y-72319906D01*
X135386806Y-72311800D01*
X135379671Y-72308619D01*
X135370823Y-72290749D01*
X135363652Y-72247263D01*
X135357958Y-72174769D01*
X135353544Y-72069877D01*
X135350214Y-71929193D01*
X135347921Y-71763902D01*
X135342250Y-71235750D01*
X135035334Y-71223312D01*
X135035334Y-71585000D01*
X134696667Y-71585000D01*
X134696667Y-71944834D01*
X134336834Y-71944834D01*
X134336834Y-72304667D01*
X133977000Y-72304667D01*
X133977000Y-71944834D01*
X134315667Y-71944834D01*
X134315667Y-71585000D01*
X134675500Y-71585000D01*
X134675500Y-71225167D01*
X135014167Y-71225167D01*
X135014167Y-70865334D01*
X135329955Y-70865334D01*
X135336102Y-70690709D01*
X135342250Y-70516084D01*
X135527459Y-70509968D01*
X135712667Y-70503852D01*
X135712667Y-71585000D01*
X136051334Y-71585000D01*
X136051334Y-71225167D01*
X136432334Y-71225167D01*
X136432334Y-70865334D01*
X136748121Y-70865334D01*
X136760417Y-70516084D01*
X136945625Y-70509968D01*
X137130834Y-70503852D01*
X137130834Y-71585000D01*
G36*
X128240834Y-70844167D02*
X127944500Y-70844167D01*
X127944500Y-70547834D01*
X128240834Y-70547834D01*
X128240834Y-70844167D01*
X128240834Y-70844167D01*
G37*
X128240834Y-70844167D02*
X127944500Y-70844167D01*
X127944500Y-70547834D01*
X128240834Y-70547834D01*
X128240834Y-70844167D01*
G36*
X57078500Y-70039834D02*
X56485834Y-70039834D01*
X56485834Y-69722334D01*
X57078500Y-69722334D01*
X57078500Y-70039834D01*
X57078500Y-70039834D01*
G37*
X57078500Y-70039834D02*
X56485834Y-70039834D01*
X56485834Y-69722334D01*
X57078500Y-69722334D01*
X57078500Y-70039834D01*
G36*
X56485834Y-69129667D02*
X56782167Y-69129667D01*
X56782167Y-69426000D01*
X56485834Y-69426000D01*
X56485834Y-69722334D01*
X56189500Y-69722334D01*
X56189500Y-68537000D01*
X56485834Y-68537000D01*
X56485834Y-69129667D01*
X56485834Y-69129667D01*
G37*
X56485834Y-69129667D02*
X56782167Y-69129667D01*
X56782167Y-69426000D01*
X56485834Y-69426000D01*
X56485834Y-69722334D01*
X56189500Y-69722334D01*
X56189500Y-68537000D01*
X56485834Y-68537000D01*
X56485834Y-69129667D01*
G36*
X57078500Y-69129667D02*
X56782167Y-69129667D01*
X56782167Y-68537000D01*
X57078500Y-68537000D01*
X57078500Y-69129667D01*
X57078500Y-69129667D01*
G37*
X57078500Y-69129667D02*
X56782167Y-69129667D01*
X56782167Y-68537000D01*
X57078500Y-68537000D01*
X57078500Y-69129667D01*
G36*
X127944500Y-69129667D02*
X128240834Y-69129667D01*
X128240834Y-69426000D01*
X127944500Y-69426000D01*
X127944500Y-69721171D01*
X128547750Y-69732917D01*
X128547750Y-70029250D01*
X127944500Y-70040996D01*
X127944500Y-69722334D01*
X127648167Y-69722334D01*
X127648167Y-68537000D01*
X127944500Y-68537000D01*
X127944500Y-69129667D01*
X127944500Y-69129667D01*
G37*
X127944500Y-69129667D02*
X128240834Y-69129667D01*
X128240834Y-69426000D01*
X127944500Y-69426000D01*
X127944500Y-69721171D01*
X128547750Y-69732917D01*
X128547750Y-70029250D01*
X127944500Y-70040996D01*
X127944500Y-69722334D01*
X127648167Y-69722334D01*
X127648167Y-68537000D01*
X127944500Y-68537000D01*
X127944500Y-69129667D01*
G36*
X128558334Y-69129667D02*
X128240834Y-69129667D01*
X128240834Y-68537000D01*
X128558334Y-68537000D01*
X128558334Y-69129667D01*
X128558334Y-69129667D01*
G37*
X128558334Y-69129667D02*
X128240834Y-69129667D01*
X128240834Y-68537000D01*
X128558334Y-68537000D01*
X128558334Y-69129667D01*
G36*
X48230834Y-69362500D02*
X47893815Y-69362500D01*
X47887699Y-69547709D01*
X47881584Y-69732917D01*
X47711273Y-69738995D01*
X47630000Y-69740098D01*
X47565699Y-69737620D01*
X47529530Y-69732093D01*
X47526064Y-69730175D01*
X47519214Y-69703440D01*
X47514025Y-69645328D01*
X47511352Y-69566790D01*
X47511167Y-69538889D01*
X47511167Y-69362500D01*
X47871000Y-69362500D01*
X47871000Y-69002667D01*
X48230834Y-69002667D01*
X48230834Y-69362500D01*
X48230834Y-69362500D01*
G37*
X48230834Y-69362500D02*
X47893815Y-69362500D01*
X47887699Y-69547709D01*
X47881584Y-69732917D01*
X47711273Y-69738995D01*
X47630000Y-69740098D01*
X47565699Y-69737620D01*
X47529530Y-69732093D01*
X47526064Y-69730175D01*
X47519214Y-69703440D01*
X47514025Y-69645328D01*
X47511352Y-69566790D01*
X47511167Y-69538889D01*
X47511167Y-69362500D01*
X47871000Y-69362500D01*
X47871000Y-69002667D01*
X48230834Y-69002667D01*
X48230834Y-69362500D01*
G36*
X136347667Y-69360788D02*
X135998417Y-69373084D01*
X135986185Y-69743500D01*
X135628000Y-69743500D01*
X135628000Y-69362500D01*
X135966667Y-69362500D01*
X135966667Y-69002667D01*
X136347667Y-69002667D01*
X136347667Y-69360788D01*
X136347667Y-69360788D01*
G37*
X136347667Y-69360788D02*
X135998417Y-69373084D01*
X135986185Y-69743500D01*
X135628000Y-69743500D01*
X135628000Y-69362500D01*
X135966667Y-69362500D01*
X135966667Y-69002667D01*
X136347667Y-69002667D01*
X136347667Y-69360788D01*
G36*
X46579834Y-69722334D02*
X46220000Y-69722334D01*
X46220000Y-69362500D01*
X46579834Y-69362500D01*
X46579834Y-69722334D01*
X46579834Y-69722334D01*
G37*
X46579834Y-69722334D02*
X46220000Y-69722334D01*
X46220000Y-69362500D01*
X46579834Y-69362500D01*
X46579834Y-69722334D01*
G36*
X46939667Y-69362500D02*
X46579834Y-69362500D01*
X46579834Y-69002667D01*
X46939667Y-69002667D01*
X46939667Y-69362500D01*
X46939667Y-69362500D01*
G37*
X46939667Y-69362500D02*
X46579834Y-69362500D01*
X46579834Y-69002667D01*
X46939667Y-69002667D01*
X46939667Y-69362500D01*
G36*
X49522000Y-69362500D02*
X49183334Y-69362500D01*
X49183334Y-69722334D01*
X48823500Y-69722334D01*
X48823500Y-69362500D01*
X49162167Y-69362500D01*
X49162167Y-69002667D01*
X49522000Y-69002667D01*
X49522000Y-69362500D01*
X49522000Y-69362500D01*
G37*
X49522000Y-69362500D02*
X49183334Y-69362500D01*
X49183334Y-69722334D01*
X48823500Y-69722334D01*
X48823500Y-69362500D01*
X49162167Y-69362500D01*
X49162167Y-69002667D01*
X49522000Y-69002667D01*
X49522000Y-69362500D01*
G36*
X54390334Y-69722334D02*
X53797667Y-69722334D01*
X53797667Y-69426000D01*
X54390334Y-69426000D01*
X54390334Y-69722334D01*
X54390334Y-69722334D01*
G37*
X54390334Y-69722334D02*
X53797667Y-69722334D01*
X53797667Y-69426000D01*
X54390334Y-69426000D01*
X54390334Y-69722334D01*
G36*
X54686667Y-69426000D02*
X54390334Y-69426000D01*
X54390334Y-68833334D01*
X54686667Y-68833334D01*
X54686667Y-69426000D01*
X54686667Y-69426000D01*
G37*
X54686667Y-69426000D02*
X54390334Y-69426000D01*
X54390334Y-68833334D01*
X54686667Y-68833334D01*
X54686667Y-69426000D01*
G36*
X54390334Y-68833334D02*
X53797667Y-68833334D01*
X53797667Y-68537000D01*
X54390334Y-68537000D01*
X54390334Y-68833334D01*
X54390334Y-68833334D01*
G37*
X54390334Y-68833334D02*
X53797667Y-68833334D01*
X53797667Y-68537000D01*
X54390334Y-68537000D01*
X54390334Y-68833334D01*
G36*
X55893167Y-69722334D02*
X55596834Y-69722334D01*
X55596834Y-68833334D01*
X55300500Y-68833334D01*
X55300500Y-69722334D01*
X54983000Y-69722334D01*
X54983000Y-68833334D01*
X55279334Y-68833334D01*
X55279334Y-68537000D01*
X55893167Y-68537000D01*
X55893167Y-69722334D01*
X55893167Y-69722334D01*
G37*
X55893167Y-69722334D02*
X55596834Y-69722334D01*
X55596834Y-68833334D01*
X55300500Y-68833334D01*
X55300500Y-69722334D01*
X54983000Y-69722334D01*
X54983000Y-68833334D01*
X55279334Y-68833334D01*
X55279334Y-68537000D01*
X55893167Y-68537000D01*
X55893167Y-69722334D01*
G36*
X57692334Y-69426000D02*
X58285000Y-69426000D01*
X58285000Y-69722334D01*
X57694268Y-69722334D01*
X57681750Y-69436584D01*
X57374834Y-69424146D01*
X57374834Y-68833334D01*
X57692334Y-68833334D01*
X57692334Y-69426000D01*
X57692334Y-69426000D01*
G37*
X57692334Y-69426000D02*
X58285000Y-69426000D01*
X58285000Y-69722334D01*
X57694268Y-69722334D01*
X57681750Y-69436584D01*
X57374834Y-69424146D01*
X57374834Y-68833334D01*
X57692334Y-68833334D01*
X57692334Y-69426000D01*
G36*
X57988667Y-68833334D02*
X57692334Y-68833334D01*
X57692334Y-68537000D01*
X57988667Y-68537000D01*
X57988667Y-68833334D01*
X57988667Y-68833334D01*
G37*
X57988667Y-68833334D02*
X57692334Y-68833334D01*
X57692334Y-68537000D01*
X57988667Y-68537000D01*
X57988667Y-68833334D01*
G36*
X57984302Y-68087209D02*
X57990521Y-68240667D01*
X58285000Y-68240667D01*
X58285000Y-68537000D01*
X57988667Y-68537000D01*
X57988667Y-68241829D01*
X57687042Y-68235956D01*
X57385417Y-68230084D01*
X57385417Y-67933750D01*
X57978084Y-67933750D01*
X57984302Y-68087209D01*
X57984302Y-68087209D01*
G37*
X57984302Y-68087209D02*
X57990521Y-68240667D01*
X58285000Y-68240667D01*
X58285000Y-68537000D01*
X57988667Y-68537000D01*
X57988667Y-68241829D01*
X57687042Y-68235956D01*
X57385417Y-68230084D01*
X57385417Y-67933750D01*
X57978084Y-67933750D01*
X57984302Y-68087209D01*
G36*
X125849000Y-69722334D02*
X125256334Y-69722334D01*
X125256334Y-69426000D01*
X125849000Y-69426000D01*
X125849000Y-69722334D01*
X125849000Y-69722334D01*
G37*
X125849000Y-69722334D02*
X125256334Y-69722334D01*
X125256334Y-69426000D01*
X125849000Y-69426000D01*
X125849000Y-69722334D01*
G36*
X126145334Y-69426000D02*
X125849000Y-69426000D01*
X125849000Y-68833334D01*
X126145334Y-68833334D01*
X126145334Y-69426000D01*
X126145334Y-69426000D01*
G37*
X126145334Y-69426000D02*
X125849000Y-69426000D01*
X125849000Y-68833334D01*
X126145334Y-68833334D01*
X126145334Y-69426000D01*
G36*
X125849000Y-68833334D02*
X125256334Y-68833334D01*
X125256334Y-68537000D01*
X125849000Y-68537000D01*
X125849000Y-68833334D01*
X125849000Y-68833334D01*
G37*
X125849000Y-68833334D02*
X125256334Y-68833334D01*
X125256334Y-68537000D01*
X125849000Y-68537000D01*
X125849000Y-68833334D01*
G36*
X127351834Y-69722334D02*
X127055500Y-69722334D01*
X127055500Y-68833334D01*
X126759167Y-68833334D01*
X126759167Y-69722334D01*
X126441667Y-69722334D01*
X126441667Y-68833334D01*
X126738000Y-68833334D01*
X126738000Y-68537000D01*
X127351834Y-68537000D01*
X127351834Y-69722334D01*
X127351834Y-69722334D01*
G37*
X127351834Y-69722334D02*
X127055500Y-69722334D01*
X127055500Y-68833334D01*
X126759167Y-68833334D01*
X126759167Y-69722334D01*
X126441667Y-69722334D01*
X126441667Y-68833334D01*
X126738000Y-68833334D01*
X126738000Y-68537000D01*
X127351834Y-68537000D01*
X127351834Y-69722334D01*
G36*
X129743667Y-69722334D02*
X129151000Y-69722334D01*
X129151000Y-69426000D01*
X129743667Y-69426000D01*
X129743667Y-69722334D01*
X129743667Y-69722334D01*
G37*
X129743667Y-69722334D02*
X129151000Y-69722334D01*
X129151000Y-69426000D01*
X129743667Y-69426000D01*
X129743667Y-69722334D01*
G36*
X129151000Y-69426000D02*
X128833500Y-69426000D01*
X128833500Y-68833334D01*
X129151000Y-68833334D01*
X129151000Y-69426000D01*
X129151000Y-69426000D01*
G37*
X129151000Y-69426000D02*
X128833500Y-69426000D01*
X128833500Y-68833334D01*
X129151000Y-68833334D01*
X129151000Y-69426000D01*
G36*
X129447334Y-68833334D02*
X129151000Y-68833334D01*
X129151000Y-68537000D01*
X129447334Y-68537000D01*
X129447334Y-68833334D01*
X129447334Y-68833334D01*
G37*
X129447334Y-68833334D02*
X129151000Y-68833334D01*
X129151000Y-68537000D01*
X129447334Y-68537000D01*
X129447334Y-68833334D01*
G36*
X129447334Y-68240667D02*
X129743667Y-68240667D01*
X129743667Y-68537000D01*
X129447334Y-68537000D01*
X129447334Y-68241829D01*
X129145709Y-68235956D01*
X128844084Y-68230084D01*
X128844084Y-67933750D01*
X129145709Y-67927877D01*
X129447334Y-67922005D01*
X129447334Y-68240667D01*
X129447334Y-68240667D01*
G37*
X129447334Y-68240667D02*
X129743667Y-68240667D01*
X129743667Y-68537000D01*
X129447334Y-68537000D01*
X129447334Y-68241829D01*
X129145709Y-68235956D01*
X128844084Y-68230084D01*
X128844084Y-67933750D01*
X129145709Y-67927877D01*
X129447334Y-67922005D01*
X129447334Y-68240667D01*
G36*
X135035334Y-69362500D02*
X134696667Y-69362500D01*
X134696667Y-69722334D01*
X134336834Y-69722334D01*
X134336834Y-69362500D01*
X134675500Y-69362500D01*
X134675500Y-69002667D01*
X135035334Y-69002667D01*
X135035334Y-69362500D01*
X135035334Y-69362500D01*
G37*
X135035334Y-69362500D02*
X134696667Y-69362500D01*
X134696667Y-69722334D01*
X134336834Y-69722334D01*
X134336834Y-69362500D01*
X134675500Y-69362500D01*
X134675500Y-69002667D01*
X135035334Y-69002667D01*
X135035334Y-69362500D01*
G36*
X137279000Y-69722334D02*
X136919167Y-69722334D01*
X136919167Y-69362500D01*
X137279000Y-69362500D01*
X137279000Y-69722334D01*
X137279000Y-69722334D01*
G37*
X137279000Y-69722334D02*
X136919167Y-69722334D01*
X136919167Y-69362500D01*
X137279000Y-69362500D01*
X137279000Y-69722334D01*
G36*
X137638834Y-69362500D02*
X137279000Y-69362500D01*
X137279000Y-69002667D01*
X137638834Y-69002667D01*
X137638834Y-69362500D01*
X137638834Y-69362500D01*
G37*
X137638834Y-69362500D02*
X137279000Y-69362500D01*
X137279000Y-69002667D01*
X137638834Y-69002667D01*
X137638834Y-69362500D01*
G36*
X46579834Y-68304167D02*
X46939667Y-68304167D01*
X46939667Y-68664000D01*
X46581482Y-68664000D01*
X46569250Y-68293584D01*
X46220000Y-68281288D01*
X46220000Y-67923167D01*
X46579834Y-67923167D01*
X46579834Y-68304167D01*
X46579834Y-68304167D01*
G37*
X46579834Y-68304167D02*
X46939667Y-68304167D01*
X46939667Y-68664000D01*
X46581482Y-68664000D01*
X46569250Y-68293584D01*
X46220000Y-68281288D01*
X46220000Y-67923167D01*
X46579834Y-67923167D01*
X46579834Y-68304167D01*
G36*
X47871000Y-68283000D02*
X48230834Y-68283000D01*
X48230834Y-68664000D01*
X47871000Y-68664000D01*
X47871000Y-68304167D01*
X47511167Y-68304167D01*
X47511167Y-67923167D01*
X47871000Y-67923167D01*
X47871000Y-68283000D01*
X47871000Y-68283000D01*
G37*
X47871000Y-68283000D02*
X48230834Y-68283000D01*
X48230834Y-68664000D01*
X47871000Y-68664000D01*
X47871000Y-68304167D01*
X47511167Y-68304167D01*
X47511167Y-67923167D01*
X47871000Y-67923167D01*
X47871000Y-68283000D01*
G36*
X48987542Y-67927634D02*
X49172750Y-67933750D01*
X49178866Y-68118959D01*
X49184982Y-68304167D01*
X49522000Y-68304167D01*
X49522000Y-68664000D01*
X49162167Y-68664000D01*
X49162167Y-68283000D01*
X48802334Y-68283000D01*
X48802334Y-67921519D01*
X48987542Y-67927634D01*
X48987542Y-67927634D01*
G37*
X48987542Y-67927634D02*
X49172750Y-67933750D01*
X49178866Y-68118959D01*
X49184982Y-68304167D01*
X49522000Y-68304167D01*
X49522000Y-68664000D01*
X49162167Y-68664000D01*
X49162167Y-68283000D01*
X48802334Y-68283000D01*
X48802334Y-67921519D01*
X48987542Y-67927634D01*
G36*
X134500875Y-67927634D02*
X134686084Y-67933750D01*
X134692199Y-68118959D01*
X134698315Y-68304167D01*
X135035334Y-68304167D01*
X135035334Y-68664000D01*
X134675500Y-68664000D01*
X134675500Y-68283000D01*
X134315667Y-68283000D01*
X134315667Y-67921519D01*
X134500875Y-67927634D01*
X134500875Y-67927634D01*
G37*
X134500875Y-67927634D02*
X134686084Y-67933750D01*
X134692199Y-68118959D01*
X134698315Y-68304167D01*
X135035334Y-68304167D01*
X135035334Y-68664000D01*
X134675500Y-68664000D01*
X134675500Y-68283000D01*
X134315667Y-68283000D01*
X134315667Y-67921519D01*
X134500875Y-67927634D01*
G36*
X135987834Y-68281288D02*
X136337084Y-68293584D01*
X136343199Y-68478792D01*
X136349315Y-68664000D01*
X135966667Y-68664000D01*
X135966667Y-68305879D01*
X135792042Y-68299731D01*
X135617417Y-68293584D01*
X135611301Y-68108375D01*
X135605185Y-67923167D01*
X135987834Y-67923167D01*
X135987834Y-68281288D01*
X135987834Y-68281288D01*
G37*
X135987834Y-68281288D02*
X136337084Y-68293584D01*
X136343199Y-68478792D01*
X136349315Y-68664000D01*
X135966667Y-68664000D01*
X135966667Y-68305879D01*
X135792042Y-68299731D01*
X135617417Y-68293584D01*
X135611301Y-68108375D01*
X135605185Y-67923167D01*
X135987834Y-67923167D01*
X135987834Y-68281288D01*
G36*
X137279000Y-68304167D02*
X137638834Y-68304167D01*
X137638834Y-68664000D01*
X137280648Y-68664000D01*
X137274533Y-68478792D01*
X137268417Y-68293584D01*
X136919167Y-68281288D01*
X136919167Y-67923167D01*
X137279000Y-67923167D01*
X137279000Y-68304167D01*
X137279000Y-68304167D01*
G37*
X137279000Y-68304167D02*
X137638834Y-68304167D01*
X137638834Y-68664000D01*
X137280648Y-68664000D01*
X137274533Y-68478792D01*
X137268417Y-68293584D01*
X136919167Y-68281288D01*
X136919167Y-67923167D01*
X137279000Y-67923167D01*
X137279000Y-68304167D01*
G36*
X86944667Y-59541167D02*
X85842288Y-59541167D01*
X85854584Y-59191917D01*
X86219709Y-59186125D01*
X86584834Y-59180334D01*
X86584834Y-58821500D01*
X86944667Y-58821500D01*
X86944667Y-59541167D01*
X86944667Y-59541167D01*
G37*
X86944667Y-59541167D02*
X85842288Y-59541167D01*
X85854584Y-59191917D01*
X86219709Y-59186125D01*
X86584834Y-59180334D01*
X86584834Y-58821500D01*
X86944667Y-58821500D01*
X86944667Y-59541167D01*
G36*
X86584834Y-58821500D02*
X86225000Y-58821500D01*
X86225000Y-58461667D01*
X86584834Y-58461667D01*
X86584834Y-58821500D01*
X86584834Y-58821500D01*
G37*
X86584834Y-58821500D02*
X86225000Y-58821500D01*
X86225000Y-58461667D01*
X86584834Y-58461667D01*
X86584834Y-58821500D01*
G36*
X86944667Y-58101834D02*
X86225000Y-58101834D01*
X86225000Y-58461667D01*
X85842288Y-58461667D01*
X85854584Y-58112417D01*
X86225000Y-58100185D01*
X86225000Y-57742000D01*
X86944667Y-57742000D01*
X86944667Y-58101834D01*
X86944667Y-58101834D01*
G37*
X86944667Y-58101834D02*
X86225000Y-58101834D01*
X86225000Y-58461667D01*
X85842288Y-58461667D01*
X85854584Y-58112417D01*
X86225000Y-58100185D01*
X86225000Y-57742000D01*
X86944667Y-57742000D01*
X86944667Y-58101834D01*
G36*
X88384000Y-58101834D02*
X88384000Y-59181334D01*
X88024167Y-59181334D01*
X88024167Y-59541167D01*
X87664334Y-59541167D01*
X87664334Y-59181334D01*
X87304500Y-59181334D01*
X87304500Y-58821500D01*
X87664334Y-58821500D01*
X87664334Y-59181334D01*
X88024167Y-59181334D01*
X88024167Y-58821500D01*
X87664334Y-58821500D01*
X87304500Y-58821500D01*
X87304500Y-58101834D01*
X87664334Y-58101834D01*
X87664334Y-58461667D01*
X88024167Y-58461667D01*
X88024167Y-58101834D01*
X87664334Y-58101834D01*
X87664334Y-57742000D01*
X88024167Y-57742000D01*
X88024167Y-58101834D01*
X88384000Y-58101834D01*
X88384000Y-58101834D01*
G37*
X88384000Y-58101834D02*
X88384000Y-59181334D01*
X88024167Y-59181334D01*
X88024167Y-59541167D01*
X87664334Y-59541167D01*
X87664334Y-59181334D01*
X87304500Y-59181334D01*
X87304500Y-58821500D01*
X87664334Y-58821500D01*
X87664334Y-59181334D01*
X88024167Y-59181334D01*
X88024167Y-58821500D01*
X87664334Y-58821500D01*
X87304500Y-58821500D01*
X87304500Y-58101834D01*
X87664334Y-58101834D01*
X87664334Y-58461667D01*
X88024167Y-58461667D01*
X88024167Y-58101834D01*
X87664334Y-58101834D01*
X87664334Y-57742000D01*
X88024167Y-57742000D01*
X88024167Y-58101834D01*
X88384000Y-58101834D01*
G36*
X89823334Y-58101834D02*
X89823334Y-59181334D01*
X89463500Y-59181334D01*
X89463500Y-59541167D01*
X89103667Y-59541167D01*
X89103667Y-59181334D01*
X88743834Y-59181334D01*
X88743834Y-58821500D01*
X89103667Y-58821500D01*
X89103667Y-59181334D01*
X89463500Y-59181334D01*
X89463500Y-58821500D01*
X89103667Y-58821500D01*
X88743834Y-58821500D01*
X88743834Y-58101834D01*
X89103667Y-58101834D01*
X89103667Y-58461667D01*
X89463500Y-58461667D01*
X89463500Y-58101834D01*
X89103667Y-58101834D01*
X89103667Y-57742000D01*
X89463500Y-57742000D01*
X89463500Y-58101834D01*
X89823334Y-58101834D01*
X89823334Y-58101834D01*
G37*
X89823334Y-58101834D02*
X89823334Y-59181334D01*
X89463500Y-59181334D01*
X89463500Y-59541167D01*
X89103667Y-59541167D01*
X89103667Y-59181334D01*
X88743834Y-59181334D01*
X88743834Y-58821500D01*
X89103667Y-58821500D01*
X89103667Y-59181334D01*
X89463500Y-59181334D01*
X89463500Y-58821500D01*
X89103667Y-58821500D01*
X88743834Y-58821500D01*
X88743834Y-58101834D01*
X89103667Y-58101834D01*
X89103667Y-58461667D01*
X89463500Y-58461667D01*
X89463500Y-58101834D01*
X89103667Y-58101834D01*
X89103667Y-57742000D01*
X89463500Y-57742000D01*
X89463500Y-58101834D01*
X89823334Y-58101834D01*
G36*
X91813000Y-58461667D02*
X92172834Y-58461667D01*
X92172834Y-57382167D01*
X92532667Y-57382167D01*
X92532667Y-59541167D01*
X92172834Y-59541167D01*
X92172834Y-58821500D01*
X91813000Y-58821500D01*
X91813000Y-59541167D01*
X91453167Y-59541167D01*
X91453167Y-57382167D01*
X91813000Y-57382167D01*
X91813000Y-58461667D01*
X91813000Y-58461667D01*
G37*
X91813000Y-58461667D02*
X92172834Y-58461667D01*
X92172834Y-57382167D01*
X92532667Y-57382167D01*
X92532667Y-59541167D01*
X92172834Y-59541167D01*
X92172834Y-58821500D01*
X91813000Y-58821500D01*
X91813000Y-59541167D01*
X91453167Y-59541167D01*
X91453167Y-57382167D01*
X91813000Y-57382167D01*
X91813000Y-58461667D01*
G36*
X93993167Y-59179685D02*
X93807959Y-59185801D01*
X93622750Y-59191917D01*
X93616602Y-59366542D01*
X93610455Y-59541167D01*
X92892500Y-59541167D01*
X92892500Y-59181334D01*
X93612167Y-59181334D01*
X93612167Y-57742000D01*
X93993167Y-57742000D01*
X93993167Y-59179685D01*
X93993167Y-59179685D01*
G37*
X93993167Y-59179685D02*
X93807959Y-59185801D01*
X93622750Y-59191917D01*
X93616602Y-59366542D01*
X93610455Y-59541167D01*
X92892500Y-59541167D01*
X92892500Y-59181334D01*
X93612167Y-59181334D01*
X93612167Y-57742000D01*
X93993167Y-57742000D01*
X93993167Y-59179685D01*
G36*
X93612167Y-57742000D02*
X92892500Y-57742000D01*
X92892500Y-57382167D01*
X93612167Y-57382167D01*
X93612167Y-57742000D01*
X93612167Y-57742000D01*
G37*
X93612167Y-57742000D02*
X92892500Y-57742000D01*
X92892500Y-57382167D01*
X93612167Y-57382167D01*
X93612167Y-57742000D01*
G36*
X95432500Y-57742000D02*
X95072667Y-57742000D01*
X95072667Y-59541167D01*
X94691667Y-59541167D01*
X94691667Y-57742000D01*
X94331834Y-57742000D01*
X94331834Y-57382167D01*
X95432500Y-57382167D01*
X95432500Y-57742000D01*
X95432500Y-57742000D01*
G37*
X95432500Y-57742000D02*
X95072667Y-57742000D01*
X95072667Y-59541167D01*
X94691667Y-59541167D01*
X94691667Y-57742000D01*
X94331834Y-57742000D01*
X94331834Y-57382167D01*
X95432500Y-57382167D01*
X95432500Y-57742000D01*
G36*
X96871834Y-57742000D02*
X96871834Y-59541167D01*
X96512000Y-59541167D01*
X96512000Y-58821500D01*
X96152167Y-58821500D01*
X96152167Y-59541167D01*
X95792334Y-59541167D01*
X95792334Y-57742000D01*
X96152167Y-57742000D01*
X96152167Y-58461667D01*
X96512000Y-58461667D01*
X96512000Y-57742000D01*
X96152167Y-57742000D01*
X96152167Y-57382167D01*
X96512000Y-57382167D01*
X96512000Y-57742000D01*
X96871834Y-57742000D01*
X96871834Y-57742000D01*
G37*
X96871834Y-57742000D02*
X96871834Y-59541167D01*
X96512000Y-59541167D01*
X96512000Y-58821500D01*
X96152167Y-58821500D01*
X96152167Y-59541167D01*
X95792334Y-59541167D01*
X95792334Y-57742000D01*
X96152167Y-57742000D01*
X96152167Y-58461667D01*
X96512000Y-58461667D01*
X96512000Y-57742000D01*
X96152167Y-57742000D01*
X96152167Y-57382167D01*
X96512000Y-57382167D01*
X96512000Y-57742000D01*
X96871834Y-57742000D01*
G36*
X98311167Y-59541167D02*
X97591500Y-59541167D01*
X97591500Y-59181334D01*
X97231667Y-59181334D01*
X97231667Y-58461667D01*
X97591500Y-58461667D01*
X97591500Y-59181334D01*
X97951334Y-59181334D01*
X97951334Y-58461667D01*
X97591500Y-58461667D01*
X97591500Y-58101834D01*
X97231667Y-58101834D01*
X97231667Y-57742000D01*
X97591500Y-57742000D01*
X97591500Y-58101834D01*
X97951334Y-58101834D01*
X97951334Y-57742000D01*
X97591500Y-57742000D01*
X97591500Y-57382167D01*
X98311167Y-57382167D01*
X98311167Y-59541167D01*
X98311167Y-59541167D01*
G37*
X98311167Y-59541167D02*
X97591500Y-59541167D01*
X97591500Y-59181334D01*
X97231667Y-59181334D01*
X97231667Y-58461667D01*
X97591500Y-58461667D01*
X97591500Y-59181334D01*
X97951334Y-59181334D01*
X97951334Y-58461667D01*
X97591500Y-58461667D01*
X97591500Y-58101834D01*
X97231667Y-58101834D01*
X97231667Y-57742000D01*
X97591500Y-57742000D01*
X97591500Y-58101834D01*
X97951334Y-58101834D01*
X97951334Y-57742000D01*
X97591500Y-57742000D01*
X97591500Y-57382167D01*
X98311167Y-57382167D01*
X98311167Y-59541167D01*
G36*
X136855667Y-58821500D02*
X138041000Y-58821500D01*
X138041000Y-59117834D01*
X136241834Y-59117834D01*
X136241834Y-58821500D01*
X136559334Y-58821500D01*
X136559334Y-58525167D01*
X136855667Y-58525167D01*
X136855667Y-58821500D01*
X136855667Y-58821500D01*
G37*
X136855667Y-58821500D02*
X138041000Y-58821500D01*
X138041000Y-59117834D01*
X136241834Y-59117834D01*
X136241834Y-58821500D01*
X136559334Y-58821500D01*
X136559334Y-58525167D01*
X136855667Y-58525167D01*
X136855667Y-58821500D01*
G36*
X138041000Y-58525167D02*
X136855667Y-58525167D01*
X136855667Y-58228834D01*
X138041000Y-58228834D01*
X138041000Y-58525167D01*
X138041000Y-58525167D01*
G37*
X138041000Y-58525167D02*
X136855667Y-58525167D01*
X136855667Y-58228834D01*
X138041000Y-58228834D01*
X138041000Y-58525167D01*
G36*
X125150500Y-58059500D02*
X124854167Y-58059500D01*
X124854167Y-57445667D01*
X124557834Y-57445667D01*
X124557834Y-57149334D01*
X124261500Y-57149334D01*
X124261500Y-56556667D01*
X124557834Y-56556667D01*
X124557834Y-57149334D01*
X124854167Y-57149334D01*
X124854167Y-56556667D01*
X124557834Y-56556667D01*
X124557834Y-56260334D01*
X125150500Y-56260334D01*
X125150500Y-58059500D01*
X125150500Y-58059500D01*
G37*
X125150500Y-58059500D02*
X124854167Y-58059500D01*
X124854167Y-57445667D01*
X124557834Y-57445667D01*
X124557834Y-57149334D01*
X124261500Y-57149334D01*
X124261500Y-56556667D01*
X124557834Y-56556667D01*
X124557834Y-57149334D01*
X124854167Y-57149334D01*
X124854167Y-56556667D01*
X124557834Y-56556667D01*
X124557834Y-56260334D01*
X125150500Y-56260334D01*
X125150500Y-58059500D01*
G36*
X126060667Y-56556667D02*
X126357000Y-56556667D01*
X126357000Y-56853000D01*
X126060667Y-56853000D01*
X126060667Y-57147479D01*
X125907209Y-57153698D01*
X125753750Y-57159917D01*
X125741980Y-57740831D01*
X126044198Y-57746707D01*
X126346417Y-57752584D01*
X126358855Y-58059500D01*
X125743167Y-58059500D01*
X125743167Y-57765101D01*
X125600292Y-57758842D01*
X125457417Y-57752584D01*
X125445671Y-57149334D01*
X125743167Y-57149334D01*
X125743167Y-56853000D01*
X126039500Y-56853000D01*
X126039500Y-56556667D01*
X125446834Y-56556667D01*
X125446834Y-56260334D01*
X126060667Y-56260334D01*
X126060667Y-56556667D01*
X126060667Y-56556667D01*
G37*
X126060667Y-56556667D02*
X126357000Y-56556667D01*
X126357000Y-56853000D01*
X126060667Y-56853000D01*
X126060667Y-57147479D01*
X125907209Y-57153698D01*
X125753750Y-57159917D01*
X125741980Y-57740831D01*
X126044198Y-57746707D01*
X126346417Y-57752584D01*
X126358855Y-58059500D01*
X125743167Y-58059500D01*
X125743167Y-57765101D01*
X125600292Y-57758842D01*
X125457417Y-57752584D01*
X125445671Y-57149334D01*
X125743167Y-57149334D01*
X125743167Y-56853000D01*
X126039500Y-56853000D01*
X126039500Y-56556667D01*
X125446834Y-56556667D01*
X125446834Y-56260334D01*
X126060667Y-56260334D01*
X126060667Y-56556667D01*
G36*
X130907834Y-58059500D02*
X130611500Y-58059500D01*
X130611500Y-57468688D01*
X130304584Y-57456250D01*
X130298346Y-57314321D01*
X130292109Y-57172391D01*
X130150180Y-57166154D01*
X130008250Y-57159917D01*
X130002377Y-56858292D01*
X129996505Y-56556667D01*
X130294000Y-56556667D01*
X130315167Y-56556667D01*
X130315167Y-57149334D01*
X130611500Y-57149334D01*
X130611500Y-56556667D01*
X130315167Y-56556667D01*
X130294000Y-56556667D01*
X130294000Y-56260334D01*
X130907834Y-56260334D01*
X130907834Y-58059500D01*
X130907834Y-58059500D01*
G37*
X130907834Y-58059500D02*
X130611500Y-58059500D01*
X130611500Y-57468688D01*
X130304584Y-57456250D01*
X130298346Y-57314321D01*
X130292109Y-57172391D01*
X130150180Y-57166154D01*
X130008250Y-57159917D01*
X130002377Y-56858292D01*
X129996505Y-56556667D01*
X130294000Y-56556667D01*
X130315167Y-56556667D01*
X130315167Y-57149334D01*
X130611500Y-57149334D01*
X130611500Y-56556667D01*
X130315167Y-56556667D01*
X130294000Y-56556667D01*
X130294000Y-56260334D01*
X130907834Y-56260334D01*
X130907834Y-58059500D01*
G36*
X132103750Y-58048917D02*
X131802125Y-58054790D01*
X131500500Y-58060662D01*
X131500500Y-57763167D01*
X132116268Y-57763167D01*
X132103750Y-58048917D01*
X132103750Y-58048917D01*
G37*
X132103750Y-58048917D02*
X131802125Y-58054790D01*
X131500500Y-58060662D01*
X131500500Y-57763167D01*
X132116268Y-57763167D01*
X132103750Y-58048917D01*
G36*
X131796834Y-57170500D02*
X131500500Y-57170500D01*
X131500500Y-57763167D01*
X131204167Y-57763167D01*
X131204167Y-57149334D01*
X131500500Y-57149334D01*
X131500500Y-56853000D01*
X131796834Y-56853000D01*
X131796834Y-57170500D01*
X131796834Y-57170500D01*
G37*
X131796834Y-57170500D02*
X131500500Y-57170500D01*
X131500500Y-57763167D01*
X131204167Y-57763167D01*
X131204167Y-57149334D01*
X131500500Y-57149334D01*
X131500500Y-56853000D01*
X131796834Y-56853000D01*
X131796834Y-57170500D01*
G36*
X131796834Y-56554812D02*
X132103750Y-56567250D01*
X132116268Y-56853000D01*
X131796834Y-56853000D01*
X131796834Y-56556667D01*
X131204167Y-56556667D01*
X131204167Y-56260334D01*
X131796834Y-56260334D01*
X131796834Y-56554812D01*
X131796834Y-56554812D01*
G37*
X131796834Y-56554812D02*
X132103750Y-56567250D01*
X132116268Y-56853000D01*
X131796834Y-56853000D01*
X131796834Y-56556667D01*
X131204167Y-56556667D01*
X131204167Y-56260334D01*
X131796834Y-56260334D01*
X131796834Y-56554812D01*
G36*
X138041000Y-57318667D02*
X138041000Y-57636167D01*
X137744667Y-57636167D01*
X137744667Y-57932500D01*
X136559334Y-57932500D01*
X136559334Y-57638021D01*
X136405875Y-57631802D01*
X136252417Y-57625584D01*
X136252417Y-57329250D01*
X136405875Y-57323031D01*
X136513560Y-57318667D01*
X136559334Y-57318667D01*
X136559334Y-57615000D01*
X137744667Y-57615000D01*
X137744667Y-57318667D01*
X136559334Y-57318667D01*
X136513560Y-57318667D01*
X136559334Y-57316812D01*
X136559334Y-57022334D01*
X137744667Y-57022334D01*
X137744667Y-57318667D01*
X138041000Y-57318667D01*
X138041000Y-57318667D01*
G37*
X138041000Y-57318667D02*
X138041000Y-57636167D01*
X137744667Y-57636167D01*
X137744667Y-57932500D01*
X136559334Y-57932500D01*
X136559334Y-57638021D01*
X136405875Y-57631802D01*
X136252417Y-57625584D01*
X136252417Y-57329250D01*
X136405875Y-57323031D01*
X136513560Y-57318667D01*
X136559334Y-57318667D01*
X136559334Y-57615000D01*
X137744667Y-57615000D01*
X137744667Y-57318667D01*
X136559334Y-57318667D01*
X136513560Y-57318667D01*
X136559334Y-57316812D01*
X136559334Y-57022334D01*
X137744667Y-57022334D01*
X137744667Y-57318667D01*
X138041000Y-57318667D01*
G36*
X123499500Y-57085834D02*
X123986334Y-57085834D01*
X123986334Y-57255167D01*
X123499500Y-57255167D01*
X123499500Y-57742000D01*
X123330167Y-57742000D01*
X123330167Y-57255167D01*
X122843334Y-57255167D01*
X122843334Y-57085834D01*
X123330167Y-57085834D01*
X123330167Y-56599000D01*
X123499500Y-56599000D01*
X123499500Y-57085834D01*
X123499500Y-57085834D01*
G37*
X123499500Y-57085834D02*
X123986334Y-57085834D01*
X123986334Y-57255167D01*
X123499500Y-57255167D01*
X123499500Y-57742000D01*
X123330167Y-57742000D01*
X123330167Y-57255167D01*
X122843334Y-57255167D01*
X122843334Y-57085834D01*
X123330167Y-57085834D01*
X123330167Y-56599000D01*
X123499500Y-56599000D01*
X123499500Y-57085834D01*
G36*
X129743667Y-57255167D02*
X128600667Y-57255167D01*
X128600667Y-57085834D01*
X129743667Y-57085834D01*
X129743667Y-57255167D01*
X129743667Y-57255167D01*
G37*
X129743667Y-57255167D02*
X128600667Y-57255167D01*
X128600667Y-57085834D01*
X129743667Y-57085834D01*
X129743667Y-57255167D01*
G36*
X136559334Y-56429667D02*
X138041000Y-56429667D01*
X138041000Y-56726000D01*
X136241834Y-56726000D01*
X136241834Y-55837000D01*
X136559334Y-55837000D01*
X136559334Y-56429667D01*
X136559334Y-56429667D01*
G37*
X136559334Y-56429667D02*
X138041000Y-56429667D01*
X138041000Y-56726000D01*
X136241834Y-56726000D01*
X136241834Y-55837000D01*
X136559334Y-55837000D01*
X136559334Y-56429667D01*
G36*
X84383500Y-54694000D02*
X84679834Y-54694000D01*
X84679834Y-54988479D01*
X84986750Y-55000917D01*
X84986750Y-55593584D01*
X84536023Y-55599299D01*
X84085295Y-55605014D01*
X84091523Y-55451132D01*
X84097750Y-55297250D01*
X84679834Y-55285472D01*
X84679834Y-55013434D01*
X84536959Y-55007176D01*
X84394084Y-55000917D01*
X84387865Y-54847459D01*
X84381646Y-54694000D01*
X84087167Y-54694000D01*
X84087167Y-54397667D01*
X84383500Y-54397667D01*
X84383500Y-54694000D01*
X84383500Y-54694000D01*
G37*
X84383500Y-54694000D02*
X84679834Y-54694000D01*
X84679834Y-54988479D01*
X84986750Y-55000917D01*
X84986750Y-55593584D01*
X84536023Y-55599299D01*
X84085295Y-55605014D01*
X84091523Y-55451132D01*
X84097750Y-55297250D01*
X84679834Y-55285472D01*
X84679834Y-55013434D01*
X84536959Y-55007176D01*
X84394084Y-55000917D01*
X84387865Y-54847459D01*
X84381646Y-54694000D01*
X84087167Y-54694000D01*
X84087167Y-54397667D01*
X84383500Y-54397667D01*
X84383500Y-54694000D01*
G36*
X84997334Y-54397667D02*
X84383500Y-54397667D01*
X84383500Y-54101334D01*
X84997334Y-54101334D01*
X84997334Y-54397667D01*
X84997334Y-54397667D01*
G37*
X84997334Y-54397667D02*
X84383500Y-54397667D01*
X84383500Y-54101334D01*
X84997334Y-54101334D01*
X84997334Y-54397667D01*
G36*
X86182667Y-54101334D02*
X86182667Y-55604167D01*
X85886334Y-55604167D01*
X85886334Y-55011500D01*
X85590000Y-55011500D01*
X85590000Y-55604167D01*
X85293667Y-55604167D01*
X85293667Y-54101334D01*
X85590000Y-54101334D01*
X85590000Y-54694000D01*
X85886334Y-54694000D01*
X85886334Y-54101334D01*
X85590000Y-54101334D01*
X85590000Y-53805000D01*
X85886334Y-53805000D01*
X85886334Y-54101334D01*
X86182667Y-54101334D01*
X86182667Y-54101334D01*
G37*
X86182667Y-54101334D02*
X86182667Y-55604167D01*
X85886334Y-55604167D01*
X85886334Y-55011500D01*
X85590000Y-55011500D01*
X85590000Y-55604167D01*
X85293667Y-55604167D01*
X85293667Y-54101334D01*
X85590000Y-54101334D01*
X85590000Y-54694000D01*
X85886334Y-54694000D01*
X85886334Y-54101334D01*
X85590000Y-54101334D01*
X85590000Y-53805000D01*
X85886334Y-53805000D01*
X85886334Y-54101334D01*
X86182667Y-54101334D01*
G36*
X98353500Y-54397667D02*
X98649834Y-54397667D01*
X98649834Y-54694000D01*
X98353500Y-54694000D01*
X98353500Y-55284733D01*
X98496375Y-55290991D01*
X98639250Y-55297250D01*
X98645469Y-55450709D01*
X98651688Y-55604167D01*
X97737812Y-55604167D01*
X97744031Y-55450709D01*
X97750250Y-55297250D01*
X97893125Y-55290991D01*
X98036000Y-55284733D01*
X98036000Y-54101334D01*
X98353500Y-54101334D01*
X98353500Y-54397667D01*
X98353500Y-54397667D01*
G37*
X98353500Y-54397667D02*
X98649834Y-54397667D01*
X98649834Y-54694000D01*
X98353500Y-54694000D01*
X98353500Y-55284733D01*
X98496375Y-55290991D01*
X98639250Y-55297250D01*
X98645469Y-55450709D01*
X98651688Y-55604167D01*
X97737812Y-55604167D01*
X97744031Y-55450709D01*
X97750250Y-55297250D01*
X97893125Y-55290991D01*
X98036000Y-55284733D01*
X98036000Y-54101334D01*
X98353500Y-54101334D01*
X98353500Y-54397667D01*
G36*
X99835167Y-54101334D02*
X99835167Y-55604167D01*
X99538834Y-55604167D01*
X99538834Y-55011500D01*
X99242500Y-55011500D01*
X99242500Y-55604167D01*
X98946167Y-55604167D01*
X98946167Y-54101334D01*
X99242500Y-54101334D01*
X99242500Y-54694000D01*
X99538834Y-54694000D01*
X99538834Y-54101334D01*
X99242500Y-54101334D01*
X99242500Y-53805000D01*
X99538834Y-53805000D01*
X99538834Y-54101334D01*
X99835167Y-54101334D01*
X99835167Y-54101334D01*
G37*
X99835167Y-54101334D02*
X99835167Y-55604167D01*
X99538834Y-55604167D01*
X99538834Y-55011500D01*
X99242500Y-55011500D01*
X99242500Y-55604167D01*
X98946167Y-55604167D01*
X98946167Y-54101334D01*
X99242500Y-54101334D01*
X99242500Y-54694000D01*
X99538834Y-54694000D01*
X99538834Y-54101334D01*
X99242500Y-54101334D01*
X99242500Y-53805000D01*
X99538834Y-53805000D01*
X99538834Y-54101334D01*
X99835167Y-54101334D01*
G36*
X138041000Y-54926834D02*
X136559334Y-54926834D01*
X136559334Y-55223167D01*
X138041000Y-55223167D01*
X138041000Y-55540667D01*
X137155528Y-55540667D01*
X136965896Y-55540340D01*
X136789502Y-55539406D01*
X136630822Y-55537936D01*
X136494330Y-55535999D01*
X136384502Y-55533666D01*
X136305812Y-55531007D01*
X136262735Y-55528092D01*
X136255945Y-55526556D01*
X136251724Y-55502063D01*
X136248007Y-55441714D01*
X136244995Y-55351984D01*
X136242888Y-55239351D01*
X136241888Y-55110288D01*
X136241834Y-55071472D01*
X136241834Y-54630500D01*
X138041000Y-54630500D01*
X138041000Y-54926834D01*
X138041000Y-54926834D01*
G37*
X138041000Y-54926834D02*
X136559334Y-54926834D01*
X136559334Y-55223167D01*
X138041000Y-55223167D01*
X138041000Y-55540667D01*
X137155528Y-55540667D01*
X136965896Y-55540340D01*
X136789502Y-55539406D01*
X136630822Y-55537936D01*
X136494330Y-55535999D01*
X136384502Y-55533666D01*
X136305812Y-55531007D01*
X136262735Y-55528092D01*
X136255945Y-55526556D01*
X136251724Y-55502063D01*
X136248007Y-55441714D01*
X136244995Y-55351984D01*
X136242888Y-55239351D01*
X136241888Y-55110288D01*
X136241834Y-55071472D01*
X136241834Y-54630500D01*
X138041000Y-54630500D01*
X138041000Y-54926834D01*
G36*
X138041000Y-53741500D02*
X137744667Y-53741500D01*
X137744667Y-54037834D01*
X138041000Y-54037834D01*
X138041000Y-54334167D01*
X136241834Y-54334167D01*
X136241834Y-54037834D01*
X137152000Y-54037834D01*
X137152000Y-53742342D01*
X136702209Y-53736629D01*
X136252417Y-53730917D01*
X136252417Y-53434584D01*
X137146709Y-53429062D01*
X138041000Y-53423541D01*
X138041000Y-53741500D01*
X138041000Y-53741500D01*
G37*
X138041000Y-53741500D02*
X137744667Y-53741500D01*
X137744667Y-54037834D01*
X138041000Y-54037834D01*
X138041000Y-54334167D01*
X136241834Y-54334167D01*
X136241834Y-54037834D01*
X137152000Y-54037834D01*
X137152000Y-53742342D01*
X136702209Y-53736629D01*
X136252417Y-53730917D01*
X136252417Y-53434584D01*
X137146709Y-53429062D01*
X138041000Y-53423541D01*
X138041000Y-53741500D01*
G36*
X136559334Y-52831334D02*
X137152000Y-52831334D01*
X137152000Y-52535000D01*
X137448334Y-52535000D01*
X137448334Y-52831334D01*
X137744667Y-52831334D01*
X137744667Y-52238667D01*
X138041000Y-52238667D01*
X138041000Y-53127667D01*
X136241834Y-53127667D01*
X136241834Y-52238667D01*
X136559334Y-52238667D01*
X136559334Y-52831334D01*
X136559334Y-52831334D01*
G37*
X136559334Y-52831334D02*
X137152000Y-52831334D01*
X137152000Y-52535000D01*
X137448334Y-52535000D01*
X137448334Y-52831334D01*
X137744667Y-52831334D01*
X137744667Y-52238667D01*
X138041000Y-52238667D01*
X138041000Y-53127667D01*
X136241834Y-53127667D01*
X136241834Y-52238667D01*
X136559334Y-52238667D01*
X136559334Y-52831334D01*
G36*
X83198167Y-51159167D02*
X83790834Y-51159167D01*
X83790834Y-52958334D01*
X83198167Y-52958334D01*
X83198167Y-52663934D01*
X83341042Y-52657676D01*
X83483917Y-52651417D01*
X83489538Y-52053459D01*
X83495159Y-51455500D01*
X83198167Y-51455500D01*
X83198167Y-51159167D01*
X83198167Y-51159167D01*
G37*
X83198167Y-51159167D02*
X83790834Y-51159167D01*
X83790834Y-52958334D01*
X83198167Y-52958334D01*
X83198167Y-52663934D01*
X83341042Y-52657676D01*
X83483917Y-52651417D01*
X83489538Y-52053459D01*
X83495159Y-51455500D01*
X83198167Y-51455500D01*
X83198167Y-51159167D01*
G36*
X83198167Y-52663855D02*
X83044709Y-52657636D01*
X82891250Y-52651417D01*
X82885629Y-52053459D01*
X82880008Y-51455500D01*
X83198167Y-51455500D01*
X83198167Y-52663855D01*
X83198167Y-52663855D01*
G37*
X83198167Y-52663855D02*
X83044709Y-52657636D01*
X82891250Y-52651417D01*
X82885629Y-52053459D01*
X82880008Y-51455500D01*
X83198167Y-51455500D01*
X83198167Y-52663855D01*
G36*
X84383500Y-51159167D02*
X84997793Y-51159167D01*
X84992272Y-52053459D01*
X84986750Y-52947750D01*
X84679834Y-52960188D01*
X84679834Y-51455500D01*
X84383500Y-51455500D01*
X84383500Y-51159167D01*
X84383500Y-51159167D01*
G37*
X84383500Y-51159167D02*
X84997793Y-51159167D01*
X84992272Y-52053459D01*
X84986750Y-52947750D01*
X84679834Y-52960188D01*
X84679834Y-51455500D01*
X84383500Y-51455500D01*
X84383500Y-51159167D01*
G36*
X84383500Y-52958334D02*
X84087167Y-52958334D01*
X84087167Y-51455500D01*
X84383500Y-51455500D01*
X84383500Y-52958334D01*
X84383500Y-52958334D01*
G37*
X84383500Y-52958334D02*
X84087167Y-52958334D01*
X84087167Y-51455500D01*
X84383500Y-51455500D01*
X84383500Y-52958334D01*
G36*
X85590000Y-52662000D02*
X85886334Y-52662000D01*
X85886334Y-52958334D01*
X85293667Y-52958334D01*
X85293667Y-52048167D01*
X85590000Y-52048167D01*
X85590000Y-52662000D01*
X85590000Y-52662000D01*
G37*
X85590000Y-52662000D02*
X85886334Y-52662000D01*
X85886334Y-52958334D01*
X85293667Y-52958334D01*
X85293667Y-52048167D01*
X85590000Y-52048167D01*
X85590000Y-52662000D01*
G36*
X86182667Y-52662000D02*
X85886334Y-52662000D01*
X85886334Y-51455500D01*
X86182667Y-51455500D01*
X86182667Y-52662000D01*
X86182667Y-52662000D01*
G37*
X86182667Y-52662000D02*
X85886334Y-52662000D01*
X85886334Y-51455500D01*
X86182667Y-51455500D01*
X86182667Y-52662000D01*
G36*
X85886334Y-51455500D02*
X85293667Y-51455500D01*
X85293667Y-51159167D01*
X85886334Y-51159167D01*
X85886334Y-51455500D01*
X85886334Y-51455500D01*
G37*
X85886334Y-51455500D02*
X85293667Y-51455500D01*
X85293667Y-51159167D01*
X85886334Y-51159167D01*
X85886334Y-51455500D01*
G36*
X99708167Y-52048167D02*
X100004500Y-52048167D01*
X100004500Y-52662000D01*
X99708167Y-52662000D01*
X99708167Y-52958334D01*
X99563528Y-52958334D01*
X99488842Y-52956405D01*
X99431840Y-52951349D01*
X99404814Y-52944258D01*
X99404778Y-52944222D01*
X99397409Y-52917134D01*
X99392303Y-52860673D01*
X99390667Y-52797023D01*
X99390667Y-52663934D01*
X99411834Y-52663934D01*
X99554709Y-52657676D01*
X99697584Y-52651417D01*
X99697584Y-52058750D01*
X99554709Y-52052491D01*
X99411834Y-52046233D01*
X99411834Y-52663934D01*
X99390667Y-52663934D01*
X99247792Y-52657676D01*
X99104917Y-52651417D01*
X99093171Y-52048167D01*
X99388733Y-52048167D01*
X99394991Y-51905292D01*
X99401250Y-51762417D01*
X99554709Y-51756198D01*
X99708167Y-51749979D01*
X99708167Y-52048167D01*
X99708167Y-52048167D01*
G37*
X99708167Y-52048167D02*
X100004500Y-52048167D01*
X100004500Y-52662000D01*
X99708167Y-52662000D01*
X99708167Y-52958334D01*
X99563528Y-52958334D01*
X99488842Y-52956405D01*
X99431840Y-52951349D01*
X99404814Y-52944258D01*
X99404778Y-52944222D01*
X99397409Y-52917134D01*
X99392303Y-52860673D01*
X99390667Y-52797023D01*
X99390667Y-52663934D01*
X99411834Y-52663934D01*
X99554709Y-52657676D01*
X99697584Y-52651417D01*
X99697584Y-52058750D01*
X99554709Y-52052491D01*
X99411834Y-52046233D01*
X99411834Y-52663934D01*
X99390667Y-52663934D01*
X99247792Y-52657676D01*
X99104917Y-52651417D01*
X99093171Y-52048167D01*
X99388733Y-52048167D01*
X99394991Y-51905292D01*
X99401250Y-51762417D01*
X99554709Y-51756198D01*
X99708167Y-51749979D01*
X99708167Y-52048167D01*
G36*
X100597167Y-51751834D02*
X101189834Y-51751834D01*
X101189834Y-52958334D01*
X100893500Y-52958334D01*
X100893500Y-52048167D01*
X100597167Y-52048167D01*
X100597167Y-51751834D01*
X100597167Y-51751834D01*
G37*
X100597167Y-51751834D02*
X101189834Y-51751834D01*
X101189834Y-52958334D01*
X100893500Y-52958334D01*
X100893500Y-52048167D01*
X100597167Y-52048167D01*
X100597167Y-51751834D01*
G36*
X100597167Y-52958334D02*
X100300834Y-52958334D01*
X100300834Y-52048167D01*
X100597167Y-52048167D01*
X100597167Y-52958334D01*
X100597167Y-52958334D01*
G37*
X100597167Y-52958334D02*
X100300834Y-52958334D01*
X100300834Y-52048167D01*
X100597167Y-52048167D01*
X100597167Y-52958334D01*
G36*
X47934500Y-51349667D02*
X48823500Y-51349667D01*
X48823500Y-51963500D01*
X48527167Y-51963500D01*
X48527167Y-51667167D01*
X47934500Y-51667167D01*
X47934500Y-51963500D01*
X47638167Y-51963500D01*
X47638167Y-51667167D01*
X47341834Y-51667167D01*
X47341834Y-51349667D01*
X47638167Y-51349667D01*
X47638167Y-51053334D01*
X47934500Y-51053334D01*
X47934500Y-51349667D01*
X47934500Y-51349667D01*
G37*
X47934500Y-51349667D02*
X48823500Y-51349667D01*
X48823500Y-51963500D01*
X48527167Y-51963500D01*
X48527167Y-51667167D01*
X47934500Y-51667167D01*
X47934500Y-51963500D01*
X47638167Y-51963500D01*
X47638167Y-51667167D01*
X47341834Y-51667167D01*
X47341834Y-51349667D01*
X47638167Y-51349667D01*
X47638167Y-51053334D01*
X47934500Y-51053334D01*
X47934500Y-51349667D01*
G36*
X48823500Y-50757000D02*
X48527167Y-50757000D01*
X48527167Y-50460667D01*
X48823500Y-50460667D01*
X48823500Y-50757000D01*
X48823500Y-50757000D01*
G37*
X48823500Y-50757000D02*
X48527167Y-50757000D01*
X48527167Y-50460667D01*
X48823500Y-50460667D01*
X48823500Y-50757000D01*
G36*
X47934500Y-50757000D02*
X47638167Y-50757000D01*
X47638167Y-50460667D01*
X47934500Y-50460667D01*
X47934500Y-50757000D01*
X47934500Y-50757000D01*
G37*
X47934500Y-50757000D02*
X47638167Y-50757000D01*
X47638167Y-50460667D01*
X47934500Y-50460667D01*
X47934500Y-50757000D01*
G36*
X48527167Y-50460667D02*
X47934500Y-50460667D01*
X47934500Y-50164334D01*
X48527167Y-50164334D01*
X48527167Y-50460667D01*
X48527167Y-50460667D01*
G37*
X48527167Y-50460667D02*
X47934500Y-50460667D01*
X47934500Y-50164334D01*
X48527167Y-50164334D01*
X48527167Y-50460667D01*
G36*
X47934500Y-50164334D02*
X47638167Y-50164334D01*
X47638167Y-49868000D01*
X47934500Y-49868000D01*
X47934500Y-50164334D01*
X47934500Y-50164334D01*
G37*
X47934500Y-50164334D02*
X47638167Y-50164334D01*
X47638167Y-49868000D01*
X47934500Y-49868000D01*
X47934500Y-50164334D01*
G36*
X48823500Y-50164334D02*
X48527167Y-50164334D01*
X48527167Y-49868000D01*
X48823500Y-49868000D01*
X48823500Y-50164334D01*
X48823500Y-50164334D01*
G37*
X48823500Y-50164334D02*
X48527167Y-50164334D01*
X48527167Y-49868000D01*
X48823500Y-49868000D01*
X48823500Y-50164334D01*
G36*
X98349136Y-49354709D02*
X98355355Y-49508167D01*
X98649834Y-49508167D01*
X98649834Y-50100834D01*
X98353500Y-50100834D01*
X98353500Y-50397167D01*
X97739667Y-50397167D01*
X97739667Y-50100834D01*
X98332334Y-50100834D01*
X98332334Y-49508167D01*
X97737812Y-49508167D01*
X97744031Y-49354709D01*
X97750250Y-49201250D01*
X98342917Y-49201250D01*
X98349136Y-49354709D01*
X98349136Y-49354709D01*
G37*
X98349136Y-49354709D02*
X98355355Y-49508167D01*
X98649834Y-49508167D01*
X98649834Y-50100834D01*
X98353500Y-50100834D01*
X98353500Y-50397167D01*
X97739667Y-50397167D01*
X97739667Y-50100834D01*
X98332334Y-50100834D01*
X98332334Y-49508167D01*
X97737812Y-49508167D01*
X97744031Y-49354709D01*
X97750250Y-49201250D01*
X98342917Y-49201250D01*
X98349136Y-49354709D01*
G36*
X99538834Y-50397167D02*
X98946167Y-50397167D01*
X98946167Y-50100834D01*
X99538834Y-50100834D01*
X99538834Y-50397167D01*
X99538834Y-50397167D01*
G37*
X99538834Y-50397167D02*
X98946167Y-50397167D01*
X98946167Y-50100834D01*
X99538834Y-50100834D01*
X99538834Y-50397167D01*
G36*
X99543198Y-49344125D02*
X99549417Y-49497584D01*
X99692292Y-49503842D01*
X99835167Y-49510101D01*
X99835167Y-50100834D01*
X99538834Y-50100834D01*
X99538834Y-49508167D01*
X98946167Y-49508167D01*
X98946167Y-49190667D01*
X99536979Y-49190667D01*
X99543198Y-49344125D01*
X99543198Y-49344125D01*
G37*
X99543198Y-49344125D02*
X99549417Y-49497584D01*
X99692292Y-49503842D01*
X99835167Y-49510101D01*
X99835167Y-50100834D01*
X99538834Y-50100834D01*
X99538834Y-49508167D01*
X98946167Y-49508167D01*
X98946167Y-49190667D01*
X99536979Y-49190667D01*
X99543198Y-49344125D01*
G36*
X100449000Y-49806434D02*
X100591875Y-49800176D01*
X100734750Y-49793917D01*
X100740371Y-49195959D01*
X100745993Y-48598000D01*
X101041667Y-48598000D01*
X101041667Y-50397167D01*
X100745334Y-50397167D01*
X100745334Y-50100834D01*
X100427834Y-50100834D01*
X100427834Y-49804500D01*
X100131500Y-49804500D01*
X100131500Y-48598000D01*
X100449000Y-48598000D01*
X100449000Y-49806434D01*
X100449000Y-49806434D01*
G37*
X100449000Y-49806434D02*
X100591875Y-49800176D01*
X100734750Y-49793917D01*
X100740371Y-49195959D01*
X100745993Y-48598000D01*
X101041667Y-48598000D01*
X101041667Y-50397167D01*
X100745334Y-50397167D01*
X100745334Y-50100834D01*
X100427834Y-50100834D01*
X100427834Y-49804500D01*
X100131500Y-49804500D01*
X100131500Y-48598000D01*
X100449000Y-48598000D01*
X100449000Y-49806434D01*
G36*
X84383500Y-49698667D02*
X84679834Y-49698667D01*
X84679834Y-48513334D01*
X84997793Y-48513334D01*
X84992272Y-49407625D01*
X84986750Y-50301917D01*
X84679834Y-50314355D01*
X84679834Y-50016167D01*
X84383500Y-50016167D01*
X84383500Y-49719834D01*
X84087167Y-49719834D01*
X84087167Y-48513334D01*
X84383500Y-48513334D01*
X84383500Y-49698667D01*
X84383500Y-49698667D01*
G37*
X84383500Y-49698667D02*
X84679834Y-49698667D01*
X84679834Y-48513334D01*
X84997793Y-48513334D01*
X84992272Y-49407625D01*
X84986750Y-50301917D01*
X84679834Y-50314355D01*
X84679834Y-50016167D01*
X84383500Y-50016167D01*
X84383500Y-49719834D01*
X84087167Y-49719834D01*
X84087167Y-48513334D01*
X84383500Y-48513334D01*
X84383500Y-49698667D01*
G36*
X86182667Y-50312500D02*
X85590000Y-50312500D01*
X85590000Y-50016167D01*
X86182667Y-50016167D01*
X86182667Y-50312500D01*
X86182667Y-50312500D01*
G37*
X86182667Y-50312500D02*
X85590000Y-50312500D01*
X85590000Y-50016167D01*
X86182667Y-50016167D01*
X86182667Y-50312500D01*
G36*
X86182667Y-49719834D02*
X85590000Y-49719834D01*
X85590000Y-50016167D01*
X85293667Y-50016167D01*
X85293667Y-49698667D01*
X85590000Y-49698667D01*
X85590000Y-49402334D01*
X85886334Y-49402334D01*
X85886334Y-49106000D01*
X85293667Y-49106000D01*
X85293667Y-48809667D01*
X86182667Y-48809667D01*
X86182667Y-49719834D01*
X86182667Y-49719834D01*
G37*
X86182667Y-49719834D02*
X85590000Y-49719834D01*
X85590000Y-50016167D01*
X85293667Y-50016167D01*
X85293667Y-49698667D01*
X85590000Y-49698667D01*
X85590000Y-49402334D01*
X85886334Y-49402334D01*
X85886334Y-49106000D01*
X85293667Y-49106000D01*
X85293667Y-48809667D01*
X86182667Y-48809667D01*
X86182667Y-49719834D01*
G36*
X48823500Y-49571667D02*
X48527167Y-49571667D01*
X48527167Y-48957834D01*
X47934500Y-48957834D01*
X47934500Y-49254167D01*
X47640101Y-49254167D01*
X47633842Y-49111292D01*
X47627584Y-48968417D01*
X47485295Y-48962171D01*
X47343007Y-48955926D01*
X47337129Y-49258505D01*
X47331250Y-49561084D01*
X47192770Y-49567242D01*
X47119622Y-49568267D01*
X47064097Y-49564913D01*
X47039312Y-49558423D01*
X47034830Y-49533661D01*
X47030884Y-49473060D01*
X47027687Y-49383112D01*
X47025451Y-49270309D01*
X47024391Y-49141144D01*
X47024334Y-49102472D01*
X47024334Y-48661500D01*
X48823500Y-48661500D01*
X48823500Y-49571667D01*
X48823500Y-49571667D01*
G37*
X48823500Y-49571667D02*
X48527167Y-49571667D01*
X48527167Y-48957834D01*
X47934500Y-48957834D01*
X47934500Y-49254167D01*
X47640101Y-49254167D01*
X47633842Y-49111292D01*
X47627584Y-48968417D01*
X47485295Y-48962171D01*
X47343007Y-48955926D01*
X47337129Y-49258505D01*
X47331250Y-49561084D01*
X47192770Y-49567242D01*
X47119622Y-49568267D01*
X47064097Y-49564913D01*
X47039312Y-49558423D01*
X47034830Y-49533661D01*
X47030884Y-49473060D01*
X47027687Y-49383112D01*
X47025451Y-49270309D01*
X47024391Y-49141144D01*
X47024334Y-49102472D01*
X47024334Y-48661500D01*
X48823500Y-48661500D01*
X48823500Y-49571667D01*
G36*
X129997667Y-46693000D02*
X129383834Y-46693000D01*
X129383834Y-46396667D01*
X129997667Y-46396667D01*
X129997667Y-46693000D01*
X129997667Y-46693000D01*
G37*
X129997667Y-46693000D02*
X129383834Y-46693000D01*
X129383834Y-46396667D01*
X129997667Y-46396667D01*
X129997667Y-46693000D01*
G36*
X129394417Y-45793417D02*
X129536705Y-45799662D01*
X129678993Y-45805908D01*
X129684872Y-45503329D01*
X129690750Y-45200750D01*
X129987084Y-45200750D01*
X129987084Y-45793417D01*
X129845154Y-45799654D01*
X129703225Y-45805891D01*
X129696987Y-45947821D01*
X129690750Y-46089750D01*
X129383834Y-46102188D01*
X129383834Y-46396667D01*
X129087500Y-46396667D01*
X129087500Y-45190167D01*
X129382671Y-45190167D01*
X129394417Y-45793417D01*
X129394417Y-45793417D01*
G37*
X129394417Y-45793417D02*
X129536705Y-45799662D01*
X129678993Y-45805908D01*
X129684872Y-45503329D01*
X129690750Y-45200750D01*
X129987084Y-45200750D01*
X129987084Y-45793417D01*
X129845154Y-45799654D01*
X129703225Y-45805891D01*
X129696987Y-45947821D01*
X129690750Y-46089750D01*
X129383834Y-46102188D01*
X129383834Y-46396667D01*
X129087500Y-46396667D01*
X129087500Y-45190167D01*
X129382671Y-45190167D01*
X129394417Y-45793417D01*
G36*
X127288334Y-46396667D02*
X126695667Y-46396667D01*
X126695667Y-46100334D01*
X127288334Y-46100334D01*
X127288334Y-46396667D01*
X127288334Y-46396667D01*
G37*
X127288334Y-46396667D02*
X126695667Y-46396667D01*
X126695667Y-46100334D01*
X127288334Y-46100334D01*
X127288334Y-46396667D01*
G36*
X127288334Y-45486500D02*
X127584667Y-45486500D01*
X127584667Y-46100334D01*
X127288334Y-46100334D01*
X127288334Y-45507667D01*
X126695667Y-45507667D01*
X126695667Y-45190167D01*
X127288334Y-45190167D01*
X127288334Y-45486500D01*
X127288334Y-45486500D01*
G37*
X127288334Y-45486500D02*
X127584667Y-45486500D01*
X127584667Y-46100334D01*
X127288334Y-46100334D01*
X127288334Y-45507667D01*
X126695667Y-45507667D01*
X126695667Y-45190167D01*
X127288334Y-45190167D01*
X127288334Y-45486500D01*
G36*
X128791167Y-46396667D02*
X128494834Y-46396667D01*
X128494834Y-45507667D01*
X128198500Y-45507667D01*
X128198500Y-46396667D01*
X127880158Y-46396667D01*
X127885871Y-45946875D01*
X127891584Y-45497084D01*
X128198500Y-45484646D01*
X128198500Y-45190167D01*
X128791167Y-45190167D01*
X128791167Y-46396667D01*
X128791167Y-46396667D01*
G37*
X128791167Y-46396667D02*
X128494834Y-46396667D01*
X128494834Y-45507667D01*
X128198500Y-45507667D01*
X128198500Y-46396667D01*
X127880158Y-46396667D01*
X127885871Y-45946875D01*
X127891584Y-45497084D01*
X128198500Y-45484646D01*
X128198500Y-45190167D01*
X128791167Y-45190167D01*
X128791167Y-46396667D01*
G36*
X131183000Y-46396667D02*
X130590334Y-46396667D01*
X130590334Y-46100334D01*
X131183000Y-46100334D01*
X131183000Y-46396667D01*
X131183000Y-46396667D01*
G37*
X131183000Y-46396667D02*
X130590334Y-46396667D01*
X130590334Y-46100334D01*
X131183000Y-46100334D01*
X131183000Y-46396667D01*
G36*
X130886667Y-45507667D02*
X130590334Y-45507667D01*
X130590334Y-46100334D01*
X130294000Y-46100334D01*
X130294000Y-45486500D01*
X130590334Y-45486500D01*
X130590334Y-45190167D01*
X130886667Y-45190167D01*
X130886667Y-45507667D01*
X130886667Y-45507667D01*
G37*
X130886667Y-45507667D02*
X130590334Y-45507667D01*
X130590334Y-46100334D01*
X130294000Y-46100334D01*
X130294000Y-45486500D01*
X130590334Y-45486500D01*
X130590334Y-45190167D01*
X130886667Y-45190167D01*
X130886667Y-45507667D01*
G36*
X131183000Y-45190167D02*
X130886667Y-45190167D01*
X130886667Y-44893834D01*
X131183000Y-44893834D01*
X131183000Y-45190167D01*
X131183000Y-45190167D01*
G37*
X131183000Y-45190167D02*
X130886667Y-45190167D01*
X130886667Y-44893834D01*
X131183000Y-44893834D01*
X131183000Y-45190167D01*
G36*
X130886667Y-44893834D02*
X130294000Y-44893834D01*
X130294000Y-44597500D01*
X130886667Y-44597500D01*
X130886667Y-44893834D01*
X130886667Y-44893834D01*
G37*
X130886667Y-44893834D02*
X130294000Y-44893834D01*
X130294000Y-44597500D01*
X130886667Y-44597500D01*
X130886667Y-44893834D01*
M02*
